<?xml version="1.0" standalone="no"?>
<svg xmlns="http://www.w3.org/2000/svg" version="1.1" width="195" height="195">
	<!-- Created with https://api.qrserver.com (QR Code API, see goQR.me/api for information) -->
	<title>QR Code</title>
	<desc>BEGIN:VCARD
VERSION:2.1
FN:Clément Lesné
N:Lesné;Clément
TEL;CELL:+33649229043
EMAIL;HOME;INTERNET:clement@lesne.pro
ADR:;;1, rue des Halles;Janzé;;35150;France
END:VCARD
</desc>
	<rect style="fill:rgb(255, 255, 255);fill-opacity:1" x="0" y="0" width="195" height="195" />
	<g id="elements">
		<path style="fill:rgb(0, 0, 0)" d="M 0,0 l 3,0 0,3 -3,0 z M 3,0 l 3,0 0,3 -3,0 z M 6,0 l 3,0 0,3 -3,0 z M 9,0 l 3,0 0,3 -3,0 z M 12,0 l 3,0 0,3 -3,0 z M 15,0 l 3,0 0,3 -3,0 z M 18,0 l 3,0 0,3 -3,0 z M 24,0 l 3,0 0,3 -3,0 z M 27,0 l 3,0 0,3 -3,0 z M 51,0 l 3,0 0,3 -3,0 z M 60,0 l 3,0 0,3 -3,0 z M 63,0 l 3,0 0,3 -3,0 z M 66,0 l 3,0 0,3 -3,0 z M 69,0 l 3,0 0,3 -3,0 z M 78,0 l 3,0 0,3 -3,0 z M 84,0 l 3,0 0,3 -3,0 z M 87,0 l 3,0 0,3 -3,0 z M 93,0 l 3,0 0,3 -3,0 z M 102,0 l 3,0 0,3 -3,0 z M 108,0 l 3,0 0,3 -3,0 z M 111,0 l 3,0 0,3 -3,0 z M 117,0 l 3,0 0,3 -3,0 z M 120,0 l 3,0 0,3 -3,0 z M 123,0 l 3,0 0,3 -3,0 z M 132,0 l 3,0 0,3 -3,0 z M 135,0 l 3,0 0,3 -3,0 z M 144,0 l 3,0 0,3 -3,0 z M 150,0 l 3,0 0,3 -3,0 z M 156,0 l 3,0 0,3 -3,0 z M 159,0 l 3,0 0,3 -3,0 z M 165,0 l 3,0 0,3 -3,0 z M 174,0 l 3,0 0,3 -3,0 z M 177,0 l 3,0 0,3 -3,0 z M 180,0 l 3,0 0,3 -3,0 z M 183,0 l 3,0 0,3 -3,0 z M 186,0 l 3,0 0,3 -3,0 z M 189,0 l 3,0 0,3 -3,0 z M 192,0 l 3,0 0,3 -3,0 z M 0,3 l 3,0 0,3 -3,0 z M 18,3 l 3,0 0,3 -3,0 z M 33,3 l 3,0 0,3 -3,0 z M 42,3 l 3,0 0,3 -3,0 z M 51,3 l 3,0 0,3 -3,0 z M 63,3 l 3,0 0,3 -3,0 z M 66,3 l 3,0 0,3 -3,0 z M 75,3 l 3,0 0,3 -3,0 z M 78,3 l 3,0 0,3 -3,0 z M 93,3 l 3,0 0,3 -3,0 z M 96,3 l 3,0 0,3 -3,0 z M 99,3 l 3,0 0,3 -3,0 z M 105,3 l 3,0 0,3 -3,0 z M 108,3 l 3,0 0,3 -3,0 z M 111,3 l 3,0 0,3 -3,0 z M 126,3 l 3,0 0,3 -3,0 z M 129,3 l 3,0 0,3 -3,0 z M 132,3 l 3,0 0,3 -3,0 z M 135,3 l 3,0 0,3 -3,0 z M 141,3 l 3,0 0,3 -3,0 z M 144,3 l 3,0 0,3 -3,0 z M 147,3 l 3,0 0,3 -3,0 z M 153,3 l 3,0 0,3 -3,0 z M 156,3 l 3,0 0,3 -3,0 z M 168,3 l 3,0 0,3 -3,0 z M 174,3 l 3,0 0,3 -3,0 z M 192,3 l 3,0 0,3 -3,0 z M 0,6 l 3,0 0,3 -3,0 z M 6,6 l 3,0 0,3 -3,0 z M 9,6 l 3,0 0,3 -3,0 z M 12,6 l 3,0 0,3 -3,0 z M 18,6 l 3,0 0,3 -3,0 z M 27,6 l 3,0 0,3 -3,0 z M 30,6 l 3,0 0,3 -3,0 z M 36,6 l 3,0 0,3 -3,0 z M 39,6 l 3,0 0,3 -3,0 z M 42,6 l 3,0 0,3 -3,0 z M 45,6 l 3,0 0,3 -3,0 z M 48,6 l 3,0 0,3 -3,0 z M 60,6 l 3,0 0,3 -3,0 z M 72,6 l 3,0 0,3 -3,0 z M 81,6 l 3,0 0,3 -3,0 z M 84,6 l 3,0 0,3 -3,0 z M 90,6 l 3,0 0,3 -3,0 z M 96,6 l 3,0 0,3 -3,0 z M 102,6 l 3,0 0,3 -3,0 z M 105,6 l 3,0 0,3 -3,0 z M 108,6 l 3,0 0,3 -3,0 z M 111,6 l 3,0 0,3 -3,0 z M 117,6 l 3,0 0,3 -3,0 z M 120,6 l 3,0 0,3 -3,0 z M 123,6 l 3,0 0,3 -3,0 z M 126,6 l 3,0 0,3 -3,0 z M 129,6 l 3,0 0,3 -3,0 z M 144,6 l 3,0 0,3 -3,0 z M 150,6 l 3,0 0,3 -3,0 z M 153,6 l 3,0 0,3 -3,0 z M 162,6 l 3,0 0,3 -3,0 z M 168,6 l 3,0 0,3 -3,0 z M 174,6 l 3,0 0,3 -3,0 z M 180,6 l 3,0 0,3 -3,0 z M 183,6 l 3,0 0,3 -3,0 z M 186,6 l 3,0 0,3 -3,0 z M 192,6 l 3,0 0,3 -3,0 z M 0,9 l 3,0 0,3 -3,0 z M 6,9 l 3,0 0,3 -3,0 z M 9,9 l 3,0 0,3 -3,0 z M 12,9 l 3,0 0,3 -3,0 z M 18,9 l 3,0 0,3 -3,0 z M 27,9 l 3,0 0,3 -3,0 z M 36,9 l 3,0 0,3 -3,0 z M 39,9 l 3,0 0,3 -3,0 z M 45,9 l 3,0 0,3 -3,0 z M 51,9 l 3,0 0,3 -3,0 z M 69,9 l 3,0 0,3 -3,0 z M 75,9 l 3,0 0,3 -3,0 z M 78,9 l 3,0 0,3 -3,0 z M 81,9 l 3,0 0,3 -3,0 z M 90,9 l 3,0 0,3 -3,0 z M 99,9 l 3,0 0,3 -3,0 z M 102,9 l 3,0 0,3 -3,0 z M 105,9 l 3,0 0,3 -3,0 z M 114,9 l 3,0 0,3 -3,0 z M 138,9 l 3,0 0,3 -3,0 z M 141,9 l 3,0 0,3 -3,0 z M 144,9 l 3,0 0,3 -3,0 z M 159,9 l 3,0 0,3 -3,0 z M 162,9 l 3,0 0,3 -3,0 z M 165,9 l 3,0 0,3 -3,0 z M 174,9 l 3,0 0,3 -3,0 z M 180,9 l 3,0 0,3 -3,0 z M 183,9 l 3,0 0,3 -3,0 z M 186,9 l 3,0 0,3 -3,0 z M 192,9 l 3,0 0,3 -3,0 z M 0,12 l 3,0 0,3 -3,0 z M 6,12 l 3,0 0,3 -3,0 z M 9,12 l 3,0 0,3 -3,0 z M 12,12 l 3,0 0,3 -3,0 z M 18,12 l 3,0 0,3 -3,0 z M 24,12 l 3,0 0,3 -3,0 z M 33,12 l 3,0 0,3 -3,0 z M 36,12 l 3,0 0,3 -3,0 z M 45,12 l 3,0 0,3 -3,0 z M 48,12 l 3,0 0,3 -3,0 z M 51,12 l 3,0 0,3 -3,0 z M 54,12 l 3,0 0,3 -3,0 z M 63,12 l 3,0 0,3 -3,0 z M 66,12 l 3,0 0,3 -3,0 z M 72,12 l 3,0 0,3 -3,0 z M 78,12 l 3,0 0,3 -3,0 z M 81,12 l 3,0 0,3 -3,0 z M 84,12 l 3,0 0,3 -3,0 z M 90,12 l 3,0 0,3 -3,0 z M 93,12 l 3,0 0,3 -3,0 z M 96,12 l 3,0 0,3 -3,0 z M 99,12 l 3,0 0,3 -3,0 z M 102,12 l 3,0 0,3 -3,0 z M 105,12 l 3,0 0,3 -3,0 z M 111,12 l 3,0 0,3 -3,0 z M 117,12 l 3,0 0,3 -3,0 z M 123,12 l 3,0 0,3 -3,0 z M 126,12 l 3,0 0,3 -3,0 z M 141,12 l 3,0 0,3 -3,0 z M 144,12 l 3,0 0,3 -3,0 z M 153,12 l 3,0 0,3 -3,0 z M 156,12 l 3,0 0,3 -3,0 z M 168,12 l 3,0 0,3 -3,0 z M 174,12 l 3,0 0,3 -3,0 z M 180,12 l 3,0 0,3 -3,0 z M 183,12 l 3,0 0,3 -3,0 z M 186,12 l 3,0 0,3 -3,0 z M 192,12 l 3,0 0,3 -3,0 z M 0,15 l 3,0 0,3 -3,0 z M 18,15 l 3,0 0,3 -3,0 z M 24,15 l 3,0 0,3 -3,0 z M 27,15 l 3,0 0,3 -3,0 z M 30,15 l 3,0 0,3 -3,0 z M 33,15 l 3,0 0,3 -3,0 z M 39,15 l 3,0 0,3 -3,0 z M 54,15 l 3,0 0,3 -3,0 z M 57,15 l 3,0 0,3 -3,0 z M 60,15 l 3,0 0,3 -3,0 z M 63,15 l 3,0 0,3 -3,0 z M 72,15 l 3,0 0,3 -3,0 z M 78,15 l 3,0 0,3 -3,0 z M 81,15 l 3,0 0,3 -3,0 z M 84,15 l 3,0 0,3 -3,0 z M 90,15 l 3,0 0,3 -3,0 z M 102,15 l 3,0 0,3 -3,0 z M 108,15 l 3,0 0,3 -3,0 z M 111,15 l 3,0 0,3 -3,0 z M 117,15 l 3,0 0,3 -3,0 z M 120,15 l 3,0 0,3 -3,0 z M 135,15 l 3,0 0,3 -3,0 z M 147,15 l 3,0 0,3 -3,0 z M 153,15 l 3,0 0,3 -3,0 z M 156,15 l 3,0 0,3 -3,0 z M 162,15 l 3,0 0,3 -3,0 z M 174,15 l 3,0 0,3 -3,0 z M 192,15 l 3,0 0,3 -3,0 z M 0,18 l 3,0 0,3 -3,0 z M 3,18 l 3,0 0,3 -3,0 z M 6,18 l 3,0 0,3 -3,0 z M 9,18 l 3,0 0,3 -3,0 z M 12,18 l 3,0 0,3 -3,0 z M 15,18 l 3,0 0,3 -3,0 z M 18,18 l 3,0 0,3 -3,0 z M 24,18 l 3,0 0,3 -3,0 z M 30,18 l 3,0 0,3 -3,0 z M 36,18 l 3,0 0,3 -3,0 z M 42,18 l 3,0 0,3 -3,0 z M 48,18 l 3,0 0,3 -3,0 z M 54,18 l 3,0 0,3 -3,0 z M 60,18 l 3,0 0,3 -3,0 z M 66,18 l 3,0 0,3 -3,0 z M 72,18 l 3,0 0,3 -3,0 z M 78,18 l 3,0 0,3 -3,0 z M 84,18 l 3,0 0,3 -3,0 z M 90,18 l 3,0 0,3 -3,0 z M 96,18 l 3,0 0,3 -3,0 z M 102,18 l 3,0 0,3 -3,0 z M 108,18 l 3,0 0,3 -3,0 z M 114,18 l 3,0 0,3 -3,0 z M 120,18 l 3,0 0,3 -3,0 z M 126,18 l 3,0 0,3 -3,0 z M 132,18 l 3,0 0,3 -3,0 z M 138,18 l 3,0 0,3 -3,0 z M 144,18 l 3,0 0,3 -3,0 z M 150,18 l 3,0 0,3 -3,0 z M 156,18 l 3,0 0,3 -3,0 z M 162,18 l 3,0 0,3 -3,0 z M 168,18 l 3,0 0,3 -3,0 z M 174,18 l 3,0 0,3 -3,0 z M 177,18 l 3,0 0,3 -3,0 z M 180,18 l 3,0 0,3 -3,0 z M 183,18 l 3,0 0,3 -3,0 z M 186,18 l 3,0 0,3 -3,0 z M 189,18 l 3,0 0,3 -3,0 z M 192,18 l 3,0 0,3 -3,0 z M 27,21 l 3,0 0,3 -3,0 z M 33,21 l 3,0 0,3 -3,0 z M 42,21 l 3,0 0,3 -3,0 z M 45,21 l 3,0 0,3 -3,0 z M 48,21 l 3,0 0,3 -3,0 z M 54,21 l 3,0 0,3 -3,0 z M 57,21 l 3,0 0,3 -3,0 z M 60,21 l 3,0 0,3 -3,0 z M 69,21 l 3,0 0,3 -3,0 z M 72,21 l 3,0 0,3 -3,0 z M 81,21 l 3,0 0,3 -3,0 z M 84,21 l 3,0 0,3 -3,0 z M 90,21 l 3,0 0,3 -3,0 z M 102,21 l 3,0 0,3 -3,0 z M 108,21 l 3,0 0,3 -3,0 z M 111,21 l 3,0 0,3 -3,0 z M 123,21 l 3,0 0,3 -3,0 z M 126,21 l 3,0 0,3 -3,0 z M 135,21 l 3,0 0,3 -3,0 z M 141,21 l 3,0 0,3 -3,0 z M 144,21 l 3,0 0,3 -3,0 z M 150,21 l 3,0 0,3 -3,0 z M 153,21 l 3,0 0,3 -3,0 z M 156,21 l 3,0 0,3 -3,0 z M 168,21 l 3,0 0,3 -3,0 z M 3,24 l 3,0 0,3 -3,0 z M 6,24 l 3,0 0,3 -3,0 z M 9,24 l 3,0 0,3 -3,0 z M 12,24 l 3,0 0,3 -3,0 z M 15,24 l 3,0 0,3 -3,0 z M 18,24 l 3,0 0,3 -3,0 z M 21,24 l 3,0 0,3 -3,0 z M 27,24 l 3,0 0,3 -3,0 z M 33,24 l 3,0 0,3 -3,0 z M 42,24 l 3,0 0,3 -3,0 z M 45,24 l 3,0 0,3 -3,0 z M 60,24 l 3,0 0,3 -3,0 z M 63,24 l 3,0 0,3 -3,0 z M 66,24 l 3,0 0,3 -3,0 z M 69,24 l 3,0 0,3 -3,0 z M 72,24 l 3,0 0,3 -3,0 z M 87,24 l 3,0 0,3 -3,0 z M 90,24 l 3,0 0,3 -3,0 z M 93,24 l 3,0 0,3 -3,0 z M 96,24 l 3,0 0,3 -3,0 z M 99,24 l 3,0 0,3 -3,0 z M 102,24 l 3,0 0,3 -3,0 z M 105,24 l 3,0 0,3 -3,0 z M 111,24 l 3,0 0,3 -3,0 z M 117,24 l 3,0 0,3 -3,0 z M 123,24 l 3,0 0,3 -3,0 z M 129,24 l 3,0 0,3 -3,0 z M 144,24 l 3,0 0,3 -3,0 z M 150,24 l 3,0 0,3 -3,0 z M 153,24 l 3,0 0,3 -3,0 z M 156,24 l 3,0 0,3 -3,0 z M 159,24 l 3,0 0,3 -3,0 z M 162,24 l 3,0 0,3 -3,0 z M 165,24 l 3,0 0,3 -3,0 z M 168,24 l 3,0 0,3 -3,0 z M 177,24 l 3,0 0,3 -3,0 z M 180,24 l 3,0 0,3 -3,0 z M 192,24 l 3,0 0,3 -3,0 z M 12,27 l 3,0 0,3 -3,0 z M 24,27 l 3,0 0,3 -3,0 z M 27,27 l 3,0 0,3 -3,0 z M 30,27 l 3,0 0,3 -3,0 z M 33,27 l 3,0 0,3 -3,0 z M 36,27 l 3,0 0,3 -3,0 z M 39,27 l 3,0 0,3 -3,0 z M 42,27 l 3,0 0,3 -3,0 z M 45,27 l 3,0 0,3 -3,0 z M 48,27 l 3,0 0,3 -3,0 z M 51,27 l 3,0 0,3 -3,0 z M 57,27 l 3,0 0,3 -3,0 z M 63,27 l 3,0 0,3 -3,0 z M 69,27 l 3,0 0,3 -3,0 z M 72,27 l 3,0 0,3 -3,0 z M 75,27 l 3,0 0,3 -3,0 z M 81,27 l 3,0 0,3 -3,0 z M 87,27 l 3,0 0,3 -3,0 z M 93,27 l 3,0 0,3 -3,0 z M 96,27 l 3,0 0,3 -3,0 z M 105,27 l 3,0 0,3 -3,0 z M 108,27 l 3,0 0,3 -3,0 z M 114,27 l 3,0 0,3 -3,0 z M 123,27 l 3,0 0,3 -3,0 z M 126,27 l 3,0 0,3 -3,0 z M 132,27 l 3,0 0,3 -3,0 z M 135,27 l 3,0 0,3 -3,0 z M 141,27 l 3,0 0,3 -3,0 z M 147,27 l 3,0 0,3 -3,0 z M 153,27 l 3,0 0,3 -3,0 z M 159,27 l 3,0 0,3 -3,0 z M 162,27 l 3,0 0,3 -3,0 z M 168,27 l 3,0 0,3 -3,0 z M 174,27 l 3,0 0,3 -3,0 z M 189,27 l 3,0 0,3 -3,0 z M 9,30 l 3,0 0,3 -3,0 z M 18,30 l 3,0 0,3 -3,0 z M 24,30 l 3,0 0,3 -3,0 z M 30,30 l 3,0 0,3 -3,0 z M 33,30 l 3,0 0,3 -3,0 z M 36,30 l 3,0 0,3 -3,0 z M 45,30 l 3,0 0,3 -3,0 z M 48,30 l 3,0 0,3 -3,0 z M 51,30 l 3,0 0,3 -3,0 z M 54,30 l 3,0 0,3 -3,0 z M 57,30 l 3,0 0,3 -3,0 z M 60,30 l 3,0 0,3 -3,0 z M 63,30 l 3,0 0,3 -3,0 z M 69,30 l 3,0 0,3 -3,0 z M 90,30 l 3,0 0,3 -3,0 z M 96,30 l 3,0 0,3 -3,0 z M 102,30 l 3,0 0,3 -3,0 z M 114,30 l 3,0 0,3 -3,0 z M 117,30 l 3,0 0,3 -3,0 z M 126,30 l 3,0 0,3 -3,0 z M 129,30 l 3,0 0,3 -3,0 z M 153,30 l 3,0 0,3 -3,0 z M 156,30 l 3,0 0,3 -3,0 z M 159,30 l 3,0 0,3 -3,0 z M 162,30 l 3,0 0,3 -3,0 z M 165,30 l 3,0 0,3 -3,0 z M 168,30 l 3,0 0,3 -3,0 z M 171,30 l 3,0 0,3 -3,0 z M 177,30 l 3,0 0,3 -3,0 z M 0,33 l 3,0 0,3 -3,0 z M 6,33 l 3,0 0,3 -3,0 z M 9,33 l 3,0 0,3 -3,0 z M 12,33 l 3,0 0,3 -3,0 z M 27,33 l 3,0 0,3 -3,0 z M 30,33 l 3,0 0,3 -3,0 z M 33,33 l 3,0 0,3 -3,0 z M 36,33 l 3,0 0,3 -3,0 z M 42,33 l 3,0 0,3 -3,0 z M 51,33 l 3,0 0,3 -3,0 z M 57,33 l 3,0 0,3 -3,0 z M 63,33 l 3,0 0,3 -3,0 z M 66,33 l 3,0 0,3 -3,0 z M 78,33 l 3,0 0,3 -3,0 z M 84,33 l 3,0 0,3 -3,0 z M 87,33 l 3,0 0,3 -3,0 z M 108,33 l 3,0 0,3 -3,0 z M 111,33 l 3,0 0,3 -3,0 z M 117,33 l 3,0 0,3 -3,0 z M 123,33 l 3,0 0,3 -3,0 z M 129,33 l 3,0 0,3 -3,0 z M 135,33 l 3,0 0,3 -3,0 z M 147,33 l 3,0 0,3 -3,0 z M 156,33 l 3,0 0,3 -3,0 z M 159,33 l 3,0 0,3 -3,0 z M 171,33 l 3,0 0,3 -3,0 z M 180,33 l 3,0 0,3 -3,0 z M 183,33 l 3,0 0,3 -3,0 z M 192,33 l 3,0 0,3 -3,0 z M 0,36 l 3,0 0,3 -3,0 z M 3,36 l 3,0 0,3 -3,0 z M 6,36 l 3,0 0,3 -3,0 z M 12,36 l 3,0 0,3 -3,0 z M 18,36 l 3,0 0,3 -3,0 z M 21,36 l 3,0 0,3 -3,0 z M 27,36 l 3,0 0,3 -3,0 z M 30,36 l 3,0 0,3 -3,0 z M 33,36 l 3,0 0,3 -3,0 z M 36,36 l 3,0 0,3 -3,0 z M 42,36 l 3,0 0,3 -3,0 z M 48,36 l 3,0 0,3 -3,0 z M 51,36 l 3,0 0,3 -3,0 z M 54,36 l 3,0 0,3 -3,0 z M 57,36 l 3,0 0,3 -3,0 z M 63,36 l 3,0 0,3 -3,0 z M 66,36 l 3,0 0,3 -3,0 z M 69,36 l 3,0 0,3 -3,0 z M 72,36 l 3,0 0,3 -3,0 z M 78,36 l 3,0 0,3 -3,0 z M 87,36 l 3,0 0,3 -3,0 z M 93,36 l 3,0 0,3 -3,0 z M 96,36 l 3,0 0,3 -3,0 z M 102,36 l 3,0 0,3 -3,0 z M 108,36 l 3,0 0,3 -3,0 z M 114,36 l 3,0 0,3 -3,0 z M 120,36 l 3,0 0,3 -3,0 z M 126,36 l 3,0 0,3 -3,0 z M 129,36 l 3,0 0,3 -3,0 z M 135,36 l 3,0 0,3 -3,0 z M 138,36 l 3,0 0,3 -3,0 z M 144,36 l 3,0 0,3 -3,0 z M 147,36 l 3,0 0,3 -3,0 z M 150,36 l 3,0 0,3 -3,0 z M 153,36 l 3,0 0,3 -3,0 z M 168,36 l 3,0 0,3 -3,0 z M 177,36 l 3,0 0,3 -3,0 z M 186,36 l 3,0 0,3 -3,0 z M 3,39 l 3,0 0,3 -3,0 z M 9,39 l 3,0 0,3 -3,0 z M 15,39 l 3,0 0,3 -3,0 z M 21,39 l 3,0 0,3 -3,0 z M 42,39 l 3,0 0,3 -3,0 z M 45,39 l 3,0 0,3 -3,0 z M 48,39 l 3,0 0,3 -3,0 z M 51,39 l 3,0 0,3 -3,0 z M 54,39 l 3,0 0,3 -3,0 z M 60,39 l 3,0 0,3 -3,0 z M 69,39 l 3,0 0,3 -3,0 z M 75,39 l 3,0 0,3 -3,0 z M 81,39 l 3,0 0,3 -3,0 z M 90,39 l 3,0 0,3 -3,0 z M 93,39 l 3,0 0,3 -3,0 z M 99,39 l 3,0 0,3 -3,0 z M 102,39 l 3,0 0,3 -3,0 z M 108,39 l 3,0 0,3 -3,0 z M 114,39 l 3,0 0,3 -3,0 z M 117,39 l 3,0 0,3 -3,0 z M 120,39 l 3,0 0,3 -3,0 z M 126,39 l 3,0 0,3 -3,0 z M 129,39 l 3,0 0,3 -3,0 z M 135,39 l 3,0 0,3 -3,0 z M 147,39 l 3,0 0,3 -3,0 z M 156,39 l 3,0 0,3 -3,0 z M 159,39 l 3,0 0,3 -3,0 z M 168,39 l 3,0 0,3 -3,0 z M 189,39 l 3,0 0,3 -3,0 z M 192,39 l 3,0 0,3 -3,0 z M 0,42 l 3,0 0,3 -3,0 z M 6,42 l 3,0 0,3 -3,0 z M 12,42 l 3,0 0,3 -3,0 z M 18,42 l 3,0 0,3 -3,0 z M 21,42 l 3,0 0,3 -3,0 z M 36,42 l 3,0 0,3 -3,0 z M 51,42 l 3,0 0,3 -3,0 z M 54,42 l 3,0 0,3 -3,0 z M 57,42 l 3,0 0,3 -3,0 z M 66,42 l 3,0 0,3 -3,0 z M 72,42 l 3,0 0,3 -3,0 z M 81,42 l 3,0 0,3 -3,0 z M 87,42 l 3,0 0,3 -3,0 z M 96,42 l 3,0 0,3 -3,0 z M 102,42 l 3,0 0,3 -3,0 z M 108,42 l 3,0 0,3 -3,0 z M 111,42 l 3,0 0,3 -3,0 z M 114,42 l 3,0 0,3 -3,0 z M 120,42 l 3,0 0,3 -3,0 z M 123,42 l 3,0 0,3 -3,0 z M 132,42 l 3,0 0,3 -3,0 z M 135,42 l 3,0 0,3 -3,0 z M 147,42 l 3,0 0,3 -3,0 z M 162,42 l 3,0 0,3 -3,0 z M 165,42 l 3,0 0,3 -3,0 z M 168,42 l 3,0 0,3 -3,0 z M 171,42 l 3,0 0,3 -3,0 z M 177,42 l 3,0 0,3 -3,0 z M 180,42 l 3,0 0,3 -3,0 z M 183,42 l 3,0 0,3 -3,0 z M 192,42 l 3,0 0,3 -3,0 z M 12,45 l 3,0 0,3 -3,0 z M 21,45 l 3,0 0,3 -3,0 z M 30,45 l 3,0 0,3 -3,0 z M 33,45 l 3,0 0,3 -3,0 z M 39,45 l 3,0 0,3 -3,0 z M 42,45 l 3,0 0,3 -3,0 z M 45,45 l 3,0 0,3 -3,0 z M 48,45 l 3,0 0,3 -3,0 z M 54,45 l 3,0 0,3 -3,0 z M 60,45 l 3,0 0,3 -3,0 z M 63,45 l 3,0 0,3 -3,0 z M 69,45 l 3,0 0,3 -3,0 z M 75,45 l 3,0 0,3 -3,0 z M 81,45 l 3,0 0,3 -3,0 z M 84,45 l 3,0 0,3 -3,0 z M 87,45 l 3,0 0,3 -3,0 z M 99,45 l 3,0 0,3 -3,0 z M 111,45 l 3,0 0,3 -3,0 z M 114,45 l 3,0 0,3 -3,0 z M 120,45 l 3,0 0,3 -3,0 z M 126,45 l 3,0 0,3 -3,0 z M 129,45 l 3,0 0,3 -3,0 z M 144,45 l 3,0 0,3 -3,0 z M 147,45 l 3,0 0,3 -3,0 z M 150,45 l 3,0 0,3 -3,0 z M 156,45 l 3,0 0,3 -3,0 z M 171,45 l 3,0 0,3 -3,0 z M 177,45 l 3,0 0,3 -3,0 z M 180,45 l 3,0 0,3 -3,0 z M 189,45 l 3,0 0,3 -3,0 z M 192,45 l 3,0 0,3 -3,0 z M 0,48 l 3,0 0,3 -3,0 z M 6,48 l 3,0 0,3 -3,0 z M 15,48 l 3,0 0,3 -3,0 z M 18,48 l 3,0 0,3 -3,0 z M 30,48 l 3,0 0,3 -3,0 z M 36,48 l 3,0 0,3 -3,0 z M 39,48 l 3,0 0,3 -3,0 z M 42,48 l 3,0 0,3 -3,0 z M 45,48 l 3,0 0,3 -3,0 z M 51,48 l 3,0 0,3 -3,0 z M 57,48 l 3,0 0,3 -3,0 z M 66,48 l 3,0 0,3 -3,0 z M 69,48 l 3,0 0,3 -3,0 z M 72,48 l 3,0 0,3 -3,0 z M 78,48 l 3,0 0,3 -3,0 z M 84,48 l 3,0 0,3 -3,0 z M 96,48 l 3,0 0,3 -3,0 z M 99,48 l 3,0 0,3 -3,0 z M 102,48 l 3,0 0,3 -3,0 z M 105,48 l 3,0 0,3 -3,0 z M 123,48 l 3,0 0,3 -3,0 z M 126,48 l 3,0 0,3 -3,0 z M 132,48 l 3,0 0,3 -3,0 z M 135,48 l 3,0 0,3 -3,0 z M 138,48 l 3,0 0,3 -3,0 z M 141,48 l 3,0 0,3 -3,0 z M 144,48 l 3,0 0,3 -3,0 z M 150,48 l 3,0 0,3 -3,0 z M 153,48 l 3,0 0,3 -3,0 z M 159,48 l 3,0 0,3 -3,0 z M 168,48 l 3,0 0,3 -3,0 z M 171,48 l 3,0 0,3 -3,0 z M 174,48 l 3,0 0,3 -3,0 z M 177,48 l 3,0 0,3 -3,0 z M 3,51 l 3,0 0,3 -3,0 z M 6,51 l 3,0 0,3 -3,0 z M 12,51 l 3,0 0,3 -3,0 z M 36,51 l 3,0 0,3 -3,0 z M 39,51 l 3,0 0,3 -3,0 z M 48,51 l 3,0 0,3 -3,0 z M 54,51 l 3,0 0,3 -3,0 z M 57,51 l 3,0 0,3 -3,0 z M 78,51 l 3,0 0,3 -3,0 z M 90,51 l 3,0 0,3 -3,0 z M 99,51 l 3,0 0,3 -3,0 z M 108,51 l 3,0 0,3 -3,0 z M 114,51 l 3,0 0,3 -3,0 z M 117,51 l 3,0 0,3 -3,0 z M 123,51 l 3,0 0,3 -3,0 z M 129,51 l 3,0 0,3 -3,0 z M 132,51 l 3,0 0,3 -3,0 z M 138,51 l 3,0 0,3 -3,0 z M 147,51 l 3,0 0,3 -3,0 z M 150,51 l 3,0 0,3 -3,0 z M 153,51 l 3,0 0,3 -3,0 z M 165,51 l 3,0 0,3 -3,0 z M 171,51 l 3,0 0,3 -3,0 z M 174,51 l 3,0 0,3 -3,0 z M 189,51 l 3,0 0,3 -3,0 z M 3,54 l 3,0 0,3 -3,0 z M 6,54 l 3,0 0,3 -3,0 z M 15,54 l 3,0 0,3 -3,0 z M 18,54 l 3,0 0,3 -3,0 z M 24,54 l 3,0 0,3 -3,0 z M 30,54 l 3,0 0,3 -3,0 z M 48,54 l 3,0 0,3 -3,0 z M 66,54 l 3,0 0,3 -3,0 z M 72,54 l 3,0 0,3 -3,0 z M 78,54 l 3,0 0,3 -3,0 z M 81,54 l 3,0 0,3 -3,0 z M 84,54 l 3,0 0,3 -3,0 z M 87,54 l 3,0 0,3 -3,0 z M 96,54 l 3,0 0,3 -3,0 z M 102,54 l 3,0 0,3 -3,0 z M 105,54 l 3,0 0,3 -3,0 z M 108,54 l 3,0 0,3 -3,0 z M 111,54 l 3,0 0,3 -3,0 z M 117,54 l 3,0 0,3 -3,0 z M 132,54 l 3,0 0,3 -3,0 z M 141,54 l 3,0 0,3 -3,0 z M 159,54 l 3,0 0,3 -3,0 z M 162,54 l 3,0 0,3 -3,0 z M 171,54 l 3,0 0,3 -3,0 z M 174,54 l 3,0 0,3 -3,0 z M 177,54 l 3,0 0,3 -3,0 z M 189,54 l 3,0 0,3 -3,0 z M 9,57 l 3,0 0,3 -3,0 z M 12,57 l 3,0 0,3 -3,0 z M 21,57 l 3,0 0,3 -3,0 z M 27,57 l 3,0 0,3 -3,0 z M 39,57 l 3,0 0,3 -3,0 z M 42,57 l 3,0 0,3 -3,0 z M 48,57 l 3,0 0,3 -3,0 z M 51,57 l 3,0 0,3 -3,0 z M 57,57 l 3,0 0,3 -3,0 z M 60,57 l 3,0 0,3 -3,0 z M 72,57 l 3,0 0,3 -3,0 z M 75,57 l 3,0 0,3 -3,0 z M 87,57 l 3,0 0,3 -3,0 z M 90,57 l 3,0 0,3 -3,0 z M 96,57 l 3,0 0,3 -3,0 z M 99,57 l 3,0 0,3 -3,0 z M 102,57 l 3,0 0,3 -3,0 z M 114,57 l 3,0 0,3 -3,0 z M 123,57 l 3,0 0,3 -3,0 z M 126,57 l 3,0 0,3 -3,0 z M 129,57 l 3,0 0,3 -3,0 z M 135,57 l 3,0 0,3 -3,0 z M 141,57 l 3,0 0,3 -3,0 z M 144,57 l 3,0 0,3 -3,0 z M 153,57 l 3,0 0,3 -3,0 z M 162,57 l 3,0 0,3 -3,0 z M 165,57 l 3,0 0,3 -3,0 z M 171,57 l 3,0 0,3 -3,0 z M 180,57 l 3,0 0,3 -3,0 z M 183,57 l 3,0 0,3 -3,0 z M 0,60 l 3,0 0,3 -3,0 z M 6,60 l 3,0 0,3 -3,0 z M 18,60 l 3,0 0,3 -3,0 z M 30,60 l 3,0 0,3 -3,0 z M 36,60 l 3,0 0,3 -3,0 z M 39,60 l 3,0 0,3 -3,0 z M 42,60 l 3,0 0,3 -3,0 z M 54,60 l 3,0 0,3 -3,0 z M 60,60 l 3,0 0,3 -3,0 z M 66,60 l 3,0 0,3 -3,0 z M 75,60 l 3,0 0,3 -3,0 z M 87,60 l 3,0 0,3 -3,0 z M 90,60 l 3,0 0,3 -3,0 z M 93,60 l 3,0 0,3 -3,0 z M 96,60 l 3,0 0,3 -3,0 z M 99,60 l 3,0 0,3 -3,0 z M 102,60 l 3,0 0,3 -3,0 z M 108,60 l 3,0 0,3 -3,0 z M 117,60 l 3,0 0,3 -3,0 z M 132,60 l 3,0 0,3 -3,0 z M 138,60 l 3,0 0,3 -3,0 z M 162,60 l 3,0 0,3 -3,0 z M 165,60 l 3,0 0,3 -3,0 z M 168,60 l 3,0 0,3 -3,0 z M 171,60 l 3,0 0,3 -3,0 z M 183,60 l 3,0 0,3 -3,0 z M 189,60 l 3,0 0,3 -3,0 z M 6,63 l 3,0 0,3 -3,0 z M 9,63 l 3,0 0,3 -3,0 z M 27,63 l 3,0 0,3 -3,0 z M 42,63 l 3,0 0,3 -3,0 z M 51,63 l 3,0 0,3 -3,0 z M 54,63 l 3,0 0,3 -3,0 z M 84,63 l 3,0 0,3 -3,0 z M 87,63 l 3,0 0,3 -3,0 z M 96,63 l 3,0 0,3 -3,0 z M 102,63 l 3,0 0,3 -3,0 z M 108,63 l 3,0 0,3 -3,0 z M 111,63 l 3,0 0,3 -3,0 z M 117,63 l 3,0 0,3 -3,0 z M 120,63 l 3,0 0,3 -3,0 z M 135,63 l 3,0 0,3 -3,0 z M 138,63 l 3,0 0,3 -3,0 z M 162,63 l 3,0 0,3 -3,0 z M 165,63 l 3,0 0,3 -3,0 z M 168,63 l 3,0 0,3 -3,0 z M 171,63 l 3,0 0,3 -3,0 z M 174,63 l 3,0 0,3 -3,0 z M 180,63 l 3,0 0,3 -3,0 z M 186,63 l 3,0 0,3 -3,0 z M 189,63 l 3,0 0,3 -3,0 z M 192,63 l 3,0 0,3 -3,0 z M 0,66 l 3,0 0,3 -3,0 z M 3,66 l 3,0 0,3 -3,0 z M 6,66 l 3,0 0,3 -3,0 z M 12,66 l 3,0 0,3 -3,0 z M 18,66 l 3,0 0,3 -3,0 z M 27,66 l 3,0 0,3 -3,0 z M 30,66 l 3,0 0,3 -3,0 z M 36,66 l 3,0 0,3 -3,0 z M 42,66 l 3,0 0,3 -3,0 z M 48,66 l 3,0 0,3 -3,0 z M 51,66 l 3,0 0,3 -3,0 z M 54,66 l 3,0 0,3 -3,0 z M 60,66 l 3,0 0,3 -3,0 z M 72,66 l 3,0 0,3 -3,0 z M 78,66 l 3,0 0,3 -3,0 z M 90,66 l 3,0 0,3 -3,0 z M 99,66 l 3,0 0,3 -3,0 z M 108,66 l 3,0 0,3 -3,0 z M 111,66 l 3,0 0,3 -3,0 z M 117,66 l 3,0 0,3 -3,0 z M 126,66 l 3,0 0,3 -3,0 z M 138,66 l 3,0 0,3 -3,0 z M 156,66 l 3,0 0,3 -3,0 z M 168,66 l 3,0 0,3 -3,0 z M 171,66 l 3,0 0,3 -3,0 z M 174,66 l 3,0 0,3 -3,0 z M 177,66 l 3,0 0,3 -3,0 z M 180,66 l 3,0 0,3 -3,0 z M 183,66 l 3,0 0,3 -3,0 z M 6,69 l 3,0 0,3 -3,0 z M 9,69 l 3,0 0,3 -3,0 z M 21,69 l 3,0 0,3 -3,0 z M 27,69 l 3,0 0,3 -3,0 z M 30,69 l 3,0 0,3 -3,0 z M 36,69 l 3,0 0,3 -3,0 z M 48,69 l 3,0 0,3 -3,0 z M 54,69 l 3,0 0,3 -3,0 z M 57,69 l 3,0 0,3 -3,0 z M 60,69 l 3,0 0,3 -3,0 z M 63,69 l 3,0 0,3 -3,0 z M 66,69 l 3,0 0,3 -3,0 z M 69,69 l 3,0 0,3 -3,0 z M 75,69 l 3,0 0,3 -3,0 z M 81,69 l 3,0 0,3 -3,0 z M 87,69 l 3,0 0,3 -3,0 z M 102,69 l 3,0 0,3 -3,0 z M 111,69 l 3,0 0,3 -3,0 z M 135,69 l 3,0 0,3 -3,0 z M 141,69 l 3,0 0,3 -3,0 z M 144,69 l 3,0 0,3 -3,0 z M 147,69 l 3,0 0,3 -3,0 z M 162,69 l 3,0 0,3 -3,0 z M 168,69 l 3,0 0,3 -3,0 z M 177,69 l 3,0 0,3 -3,0 z M 180,69 l 3,0 0,3 -3,0 z M 183,69 l 3,0 0,3 -3,0 z M 3,72 l 3,0 0,3 -3,0 z M 9,72 l 3,0 0,3 -3,0 z M 18,72 l 3,0 0,3 -3,0 z M 24,72 l 3,0 0,3 -3,0 z M 27,72 l 3,0 0,3 -3,0 z M 30,72 l 3,0 0,3 -3,0 z M 33,72 l 3,0 0,3 -3,0 z M 36,72 l 3,0 0,3 -3,0 z M 39,72 l 3,0 0,3 -3,0 z M 42,72 l 3,0 0,3 -3,0 z M 45,72 l 3,0 0,3 -3,0 z M 51,72 l 3,0 0,3 -3,0 z M 54,72 l 3,0 0,3 -3,0 z M 63,72 l 3,0 0,3 -3,0 z M 69,72 l 3,0 0,3 -3,0 z M 75,72 l 3,0 0,3 -3,0 z M 84,72 l 3,0 0,3 -3,0 z M 93,72 l 3,0 0,3 -3,0 z M 114,72 l 3,0 0,3 -3,0 z M 117,72 l 3,0 0,3 -3,0 z M 123,72 l 3,0 0,3 -3,0 z M 126,72 l 3,0 0,3 -3,0 z M 129,72 l 3,0 0,3 -3,0 z M 150,72 l 3,0 0,3 -3,0 z M 153,72 l 3,0 0,3 -3,0 z M 159,72 l 3,0 0,3 -3,0 z M 162,72 l 3,0 0,3 -3,0 z M 171,72 l 3,0 0,3 -3,0 z M 183,72 l 3,0 0,3 -3,0 z M 189,72 l 3,0 0,3 -3,0 z M 12,75 l 3,0 0,3 -3,0 z M 21,75 l 3,0 0,3 -3,0 z M 45,75 l 3,0 0,3 -3,0 z M 54,75 l 3,0 0,3 -3,0 z M 57,75 l 3,0 0,3 -3,0 z M 63,75 l 3,0 0,3 -3,0 z M 66,75 l 3,0 0,3 -3,0 z M 78,75 l 3,0 0,3 -3,0 z M 81,75 l 3,0 0,3 -3,0 z M 96,75 l 3,0 0,3 -3,0 z M 105,75 l 3,0 0,3 -3,0 z M 108,75 l 3,0 0,3 -3,0 z M 114,75 l 3,0 0,3 -3,0 z M 117,75 l 3,0 0,3 -3,0 z M 123,75 l 3,0 0,3 -3,0 z M 126,75 l 3,0 0,3 -3,0 z M 129,75 l 3,0 0,3 -3,0 z M 135,75 l 3,0 0,3 -3,0 z M 147,75 l 3,0 0,3 -3,0 z M 150,75 l 3,0 0,3 -3,0 z M 162,75 l 3,0 0,3 -3,0 z M 165,75 l 3,0 0,3 -3,0 z M 168,75 l 3,0 0,3 -3,0 z M 180,75 l 3,0 0,3 -3,0 z M 0,78 l 3,0 0,3 -3,0 z M 9,78 l 3,0 0,3 -3,0 z M 12,78 l 3,0 0,3 -3,0 z M 18,78 l 3,0 0,3 -3,0 z M 21,78 l 3,0 0,3 -3,0 z M 30,78 l 3,0 0,3 -3,0 z M 33,78 l 3,0 0,3 -3,0 z M 36,78 l 3,0 0,3 -3,0 z M 48,78 l 3,0 0,3 -3,0 z M 51,78 l 3,0 0,3 -3,0 z M 54,78 l 3,0 0,3 -3,0 z M 57,78 l 3,0 0,3 -3,0 z M 66,78 l 3,0 0,3 -3,0 z M 69,78 l 3,0 0,3 -3,0 z M 72,78 l 3,0 0,3 -3,0 z M 78,78 l 3,0 0,3 -3,0 z M 84,78 l 3,0 0,3 -3,0 z M 90,78 l 3,0 0,3 -3,0 z M 99,78 l 3,0 0,3 -3,0 z M 105,78 l 3,0 0,3 -3,0 z M 108,78 l 3,0 0,3 -3,0 z M 120,78 l 3,0 0,3 -3,0 z M 126,78 l 3,0 0,3 -3,0 z M 129,78 l 3,0 0,3 -3,0 z M 135,78 l 3,0 0,3 -3,0 z M 153,78 l 3,0 0,3 -3,0 z M 159,78 l 3,0 0,3 -3,0 z M 162,78 l 3,0 0,3 -3,0 z M 168,78 l 3,0 0,3 -3,0 z M 177,78 l 3,0 0,3 -3,0 z M 186,78 l 3,0 0,3 -3,0 z M 189,78 l 3,0 0,3 -3,0 z M 3,81 l 3,0 0,3 -3,0 z M 9,81 l 3,0 0,3 -3,0 z M 12,81 l 3,0 0,3 -3,0 z M 21,81 l 3,0 0,3 -3,0 z M 39,81 l 3,0 0,3 -3,0 z M 48,81 l 3,0 0,3 -3,0 z M 51,81 l 3,0 0,3 -3,0 z M 54,81 l 3,0 0,3 -3,0 z M 57,81 l 3,0 0,3 -3,0 z M 63,81 l 3,0 0,3 -3,0 z M 69,81 l 3,0 0,3 -3,0 z M 72,81 l 3,0 0,3 -3,0 z M 75,81 l 3,0 0,3 -3,0 z M 78,81 l 3,0 0,3 -3,0 z M 81,81 l 3,0 0,3 -3,0 z M 87,81 l 3,0 0,3 -3,0 z M 90,81 l 3,0 0,3 -3,0 z M 93,81 l 3,0 0,3 -3,0 z M 99,81 l 3,0 0,3 -3,0 z M 102,81 l 3,0 0,3 -3,0 z M 105,81 l 3,0 0,3 -3,0 z M 108,81 l 3,0 0,3 -3,0 z M 117,81 l 3,0 0,3 -3,0 z M 120,81 l 3,0 0,3 -3,0 z M 123,81 l 3,0 0,3 -3,0 z M 135,81 l 3,0 0,3 -3,0 z M 138,81 l 3,0 0,3 -3,0 z M 147,81 l 3,0 0,3 -3,0 z M 153,81 l 3,0 0,3 -3,0 z M 156,81 l 3,0 0,3 -3,0 z M 159,81 l 3,0 0,3 -3,0 z M 165,81 l 3,0 0,3 -3,0 z M 168,81 l 3,0 0,3 -3,0 z M 171,81 l 3,0 0,3 -3,0 z M 174,81 l 3,0 0,3 -3,0 z M 183,81 l 3,0 0,3 -3,0 z M 186,81 l 3,0 0,3 -3,0 z M 0,84 l 3,0 0,3 -3,0 z M 6,84 l 3,0 0,3 -3,0 z M 15,84 l 3,0 0,3 -3,0 z M 18,84 l 3,0 0,3 -3,0 z M 24,84 l 3,0 0,3 -3,0 z M 27,84 l 3,0 0,3 -3,0 z M 30,84 l 3,0 0,3 -3,0 z M 36,84 l 3,0 0,3 -3,0 z M 42,84 l 3,0 0,3 -3,0 z M 48,84 l 3,0 0,3 -3,0 z M 51,84 l 3,0 0,3 -3,0 z M 54,84 l 3,0 0,3 -3,0 z M 57,84 l 3,0 0,3 -3,0 z M 72,84 l 3,0 0,3 -3,0 z M 81,84 l 3,0 0,3 -3,0 z M 90,84 l 3,0 0,3 -3,0 z M 105,84 l 3,0 0,3 -3,0 z M 111,84 l 3,0 0,3 -3,0 z M 120,84 l 3,0 0,3 -3,0 z M 126,84 l 3,0 0,3 -3,0 z M 129,84 l 3,0 0,3 -3,0 z M 132,84 l 3,0 0,3 -3,0 z M 150,84 l 3,0 0,3 -3,0 z M 153,84 l 3,0 0,3 -3,0 z M 156,84 l 3,0 0,3 -3,0 z M 171,84 l 3,0 0,3 -3,0 z M 174,84 l 3,0 0,3 -3,0 z M 180,84 l 3,0 0,3 -3,0 z M 183,84 l 3,0 0,3 -3,0 z M 189,84 l 3,0 0,3 -3,0 z M 6,87 l 3,0 0,3 -3,0 z M 9,87 l 3,0 0,3 -3,0 z M 15,87 l 3,0 0,3 -3,0 z M 27,87 l 3,0 0,3 -3,0 z M 39,87 l 3,0 0,3 -3,0 z M 48,87 l 3,0 0,3 -3,0 z M 60,87 l 3,0 0,3 -3,0 z M 66,87 l 3,0 0,3 -3,0 z M 69,87 l 3,0 0,3 -3,0 z M 78,87 l 3,0 0,3 -3,0 z M 81,87 l 3,0 0,3 -3,0 z M 87,87 l 3,0 0,3 -3,0 z M 93,87 l 3,0 0,3 -3,0 z M 96,87 l 3,0 0,3 -3,0 z M 105,87 l 3,0 0,3 -3,0 z M 123,87 l 3,0 0,3 -3,0 z M 132,87 l 3,0 0,3 -3,0 z M 138,87 l 3,0 0,3 -3,0 z M 144,87 l 3,0 0,3 -3,0 z M 147,87 l 3,0 0,3 -3,0 z M 150,87 l 3,0 0,3 -3,0 z M 153,87 l 3,0 0,3 -3,0 z M 156,87 l 3,0 0,3 -3,0 z M 159,87 l 3,0 0,3 -3,0 z M 162,87 l 3,0 0,3 -3,0 z M 165,87 l 3,0 0,3 -3,0 z M 183,87 l 3,0 0,3 -3,0 z M 186,87 l 3,0 0,3 -3,0 z M 189,87 l 3,0 0,3 -3,0 z M 0,90 l 3,0 0,3 -3,0 z M 6,90 l 3,0 0,3 -3,0 z M 12,90 l 3,0 0,3 -3,0 z M 15,90 l 3,0 0,3 -3,0 z M 18,90 l 3,0 0,3 -3,0 z M 21,90 l 3,0 0,3 -3,0 z M 24,90 l 3,0 0,3 -3,0 z M 30,90 l 3,0 0,3 -3,0 z M 33,90 l 3,0 0,3 -3,0 z M 39,90 l 3,0 0,3 -3,0 z M 45,90 l 3,0 0,3 -3,0 z M 48,90 l 3,0 0,3 -3,0 z M 54,90 l 3,0 0,3 -3,0 z M 63,90 l 3,0 0,3 -3,0 z M 66,90 l 3,0 0,3 -3,0 z M 72,90 l 3,0 0,3 -3,0 z M 78,90 l 3,0 0,3 -3,0 z M 90,90 l 3,0 0,3 -3,0 z M 93,90 l 3,0 0,3 -3,0 z M 96,90 l 3,0 0,3 -3,0 z M 99,90 l 3,0 0,3 -3,0 z M 102,90 l 3,0 0,3 -3,0 z M 111,90 l 3,0 0,3 -3,0 z M 117,90 l 3,0 0,3 -3,0 z M 120,90 l 3,0 0,3 -3,0 z M 126,90 l 3,0 0,3 -3,0 z M 129,90 l 3,0 0,3 -3,0 z M 144,90 l 3,0 0,3 -3,0 z M 150,90 l 3,0 0,3 -3,0 z M 159,90 l 3,0 0,3 -3,0 z M 168,90 l 3,0 0,3 -3,0 z M 171,90 l 3,0 0,3 -3,0 z M 174,90 l 3,0 0,3 -3,0 z M 177,90 l 3,0 0,3 -3,0 z M 180,90 l 3,0 0,3 -3,0 z M 186,90 l 3,0 0,3 -3,0 z M 192,90 l 3,0 0,3 -3,0 z M 3,93 l 3,0 0,3 -3,0 z M 9,93 l 3,0 0,3 -3,0 z M 12,93 l 3,0 0,3 -3,0 z M 24,93 l 3,0 0,3 -3,0 z M 36,93 l 3,0 0,3 -3,0 z M 54,93 l 3,0 0,3 -3,0 z M 57,93 l 3,0 0,3 -3,0 z M 75,93 l 3,0 0,3 -3,0 z M 87,93 l 3,0 0,3 -3,0 z M 90,93 l 3,0 0,3 -3,0 z M 102,93 l 3,0 0,3 -3,0 z M 105,93 l 3,0 0,3 -3,0 z M 108,93 l 3,0 0,3 -3,0 z M 111,93 l 3,0 0,3 -3,0 z M 114,93 l 3,0 0,3 -3,0 z M 132,93 l 3,0 0,3 -3,0 z M 135,93 l 3,0 0,3 -3,0 z M 138,93 l 3,0 0,3 -3,0 z M 144,93 l 3,0 0,3 -3,0 z M 150,93 l 3,0 0,3 -3,0 z M 153,93 l 3,0 0,3 -3,0 z M 156,93 l 3,0 0,3 -3,0 z M 159,93 l 3,0 0,3 -3,0 z M 162,93 l 3,0 0,3 -3,0 z M 168,93 l 3,0 0,3 -3,0 z M 180,93 l 3,0 0,3 -3,0 z M 183,93 l 3,0 0,3 -3,0 z M 186,93 l 3,0 0,3 -3,0 z M 189,93 l 3,0 0,3 -3,0 z M 3,96 l 3,0 0,3 -3,0 z M 6,96 l 3,0 0,3 -3,0 z M 9,96 l 3,0 0,3 -3,0 z M 12,96 l 3,0 0,3 -3,0 z M 18,96 l 3,0 0,3 -3,0 z M 24,96 l 3,0 0,3 -3,0 z M 27,96 l 3,0 0,3 -3,0 z M 30,96 l 3,0 0,3 -3,0 z M 33,96 l 3,0 0,3 -3,0 z M 36,96 l 3,0 0,3 -3,0 z M 39,96 l 3,0 0,3 -3,0 z M 42,96 l 3,0 0,3 -3,0 z M 45,96 l 3,0 0,3 -3,0 z M 48,96 l 3,0 0,3 -3,0 z M 51,96 l 3,0 0,3 -3,0 z M 57,96 l 3,0 0,3 -3,0 z M 60,96 l 3,0 0,3 -3,0 z M 63,96 l 3,0 0,3 -3,0 z M 72,96 l 3,0 0,3 -3,0 z M 78,96 l 3,0 0,3 -3,0 z M 90,96 l 3,0 0,3 -3,0 z M 96,96 l 3,0 0,3 -3,0 z M 102,96 l 3,0 0,3 -3,0 z M 114,96 l 3,0 0,3 -3,0 z M 117,96 l 3,0 0,3 -3,0 z M 120,96 l 3,0 0,3 -3,0 z M 126,96 l 3,0 0,3 -3,0 z M 129,96 l 3,0 0,3 -3,0 z M 132,96 l 3,0 0,3 -3,0 z M 141,96 l 3,0 0,3 -3,0 z M 147,96 l 3,0 0,3 -3,0 z M 156,96 l 3,0 0,3 -3,0 z M 162,96 l 3,0 0,3 -3,0 z M 165,96 l 3,0 0,3 -3,0 z M 168,96 l 3,0 0,3 -3,0 z M 174,96 l 3,0 0,3 -3,0 z M 180,96 l 3,0 0,3 -3,0 z M 0,99 l 3,0 0,3 -3,0 z M 3,99 l 3,0 0,3 -3,0 z M 12,99 l 3,0 0,3 -3,0 z M 24,99 l 3,0 0,3 -3,0 z M 27,99 l 3,0 0,3 -3,0 z M 30,99 l 3,0 0,3 -3,0 z M 33,99 l 3,0 0,3 -3,0 z M 51,99 l 3,0 0,3 -3,0 z M 57,99 l 3,0 0,3 -3,0 z M 63,99 l 3,0 0,3 -3,0 z M 66,99 l 3,0 0,3 -3,0 z M 69,99 l 3,0 0,3 -3,0 z M 75,99 l 3,0 0,3 -3,0 z M 78,99 l 3,0 0,3 -3,0 z M 81,99 l 3,0 0,3 -3,0 z M 84,99 l 3,0 0,3 -3,0 z M 87,99 l 3,0 0,3 -3,0 z M 90,99 l 3,0 0,3 -3,0 z M 102,99 l 3,0 0,3 -3,0 z M 111,99 l 3,0 0,3 -3,0 z M 114,99 l 3,0 0,3 -3,0 z M 117,99 l 3,0 0,3 -3,0 z M 126,99 l 3,0 0,3 -3,0 z M 132,99 l 3,0 0,3 -3,0 z M 147,99 l 3,0 0,3 -3,0 z M 150,99 l 3,0 0,3 -3,0 z M 153,99 l 3,0 0,3 -3,0 z M 159,99 l 3,0 0,3 -3,0 z M 168,99 l 3,0 0,3 -3,0 z M 180,99 l 3,0 0,3 -3,0 z M 183,99 l 3,0 0,3 -3,0 z M 0,102 l 3,0 0,3 -3,0 z M 3,102 l 3,0 0,3 -3,0 z M 9,102 l 3,0 0,3 -3,0 z M 12,102 l 3,0 0,3 -3,0 z M 15,102 l 3,0 0,3 -3,0 z M 18,102 l 3,0 0,3 -3,0 z M 21,102 l 3,0 0,3 -3,0 z M 24,102 l 3,0 0,3 -3,0 z M 30,102 l 3,0 0,3 -3,0 z M 33,102 l 3,0 0,3 -3,0 z M 36,102 l 3,0 0,3 -3,0 z M 39,102 l 3,0 0,3 -3,0 z M 42,102 l 3,0 0,3 -3,0 z M 45,102 l 3,0 0,3 -3,0 z M 48,102 l 3,0 0,3 -3,0 z M 54,102 l 3,0 0,3 -3,0 z M 57,102 l 3,0 0,3 -3,0 z M 63,102 l 3,0 0,3 -3,0 z M 72,102 l 3,0 0,3 -3,0 z M 75,102 l 3,0 0,3 -3,0 z M 78,102 l 3,0 0,3 -3,0 z M 81,102 l 3,0 0,3 -3,0 z M 84,102 l 3,0 0,3 -3,0 z M 87,102 l 3,0 0,3 -3,0 z M 90,102 l 3,0 0,3 -3,0 z M 93,102 l 3,0 0,3 -3,0 z M 96,102 l 3,0 0,3 -3,0 z M 99,102 l 3,0 0,3 -3,0 z M 102,102 l 3,0 0,3 -3,0 z M 117,102 l 3,0 0,3 -3,0 z M 120,102 l 3,0 0,3 -3,0 z M 126,102 l 3,0 0,3 -3,0 z M 129,102 l 3,0 0,3 -3,0 z M 141,102 l 3,0 0,3 -3,0 z M 150,102 l 3,0 0,3 -3,0 z M 153,102 l 3,0 0,3 -3,0 z M 165,102 l 3,0 0,3 -3,0 z M 168,102 l 3,0 0,3 -3,0 z M 171,102 l 3,0 0,3 -3,0 z M 174,102 l 3,0 0,3 -3,0 z M 177,102 l 3,0 0,3 -3,0 z M 180,102 l 3,0 0,3 -3,0 z M 183,102 l 3,0 0,3 -3,0 z M 186,102 l 3,0 0,3 -3,0 z M 189,102 l 3,0 0,3 -3,0 z M 3,105 l 3,0 0,3 -3,0 z M 6,105 l 3,0 0,3 -3,0 z M 21,105 l 3,0 0,3 -3,0 z M 24,105 l 3,0 0,3 -3,0 z M 27,105 l 3,0 0,3 -3,0 z M 39,105 l 3,0 0,3 -3,0 z M 42,105 l 3,0 0,3 -3,0 z M 45,105 l 3,0 0,3 -3,0 z M 48,105 l 3,0 0,3 -3,0 z M 63,105 l 3,0 0,3 -3,0 z M 66,105 l 3,0 0,3 -3,0 z M 69,105 l 3,0 0,3 -3,0 z M 75,105 l 3,0 0,3 -3,0 z M 78,105 l 3,0 0,3 -3,0 z M 81,105 l 3,0 0,3 -3,0 z M 84,105 l 3,0 0,3 -3,0 z M 90,105 l 3,0 0,3 -3,0 z M 93,105 l 3,0 0,3 -3,0 z M 99,105 l 3,0 0,3 -3,0 z M 105,105 l 3,0 0,3 -3,0 z M 108,105 l 3,0 0,3 -3,0 z M 126,105 l 3,0 0,3 -3,0 z M 135,105 l 3,0 0,3 -3,0 z M 138,105 l 3,0 0,3 -3,0 z M 141,105 l 3,0 0,3 -3,0 z M 153,105 l 3,0 0,3 -3,0 z M 159,105 l 3,0 0,3 -3,0 z M 162,105 l 3,0 0,3 -3,0 z M 168,105 l 3,0 0,3 -3,0 z M 171,105 l 3,0 0,3 -3,0 z M 174,105 l 3,0 0,3 -3,0 z M 180,105 l 3,0 0,3 -3,0 z M 183,105 l 3,0 0,3 -3,0 z M 186,105 l 3,0 0,3 -3,0 z M 192,105 l 3,0 0,3 -3,0 z M 3,108 l 3,0 0,3 -3,0 z M 6,108 l 3,0 0,3 -3,0 z M 9,108 l 3,0 0,3 -3,0 z M 18,108 l 3,0 0,3 -3,0 z M 30,108 l 3,0 0,3 -3,0 z M 36,108 l 3,0 0,3 -3,0 z M 45,108 l 3,0 0,3 -3,0 z M 48,108 l 3,0 0,3 -3,0 z M 54,108 l 3,0 0,3 -3,0 z M 57,108 l 3,0 0,3 -3,0 z M 60,108 l 3,0 0,3 -3,0 z M 66,108 l 3,0 0,3 -3,0 z M 75,108 l 3,0 0,3 -3,0 z M 78,108 l 3,0 0,3 -3,0 z M 84,108 l 3,0 0,3 -3,0 z M 87,108 l 3,0 0,3 -3,0 z M 93,108 l 3,0 0,3 -3,0 z M 114,108 l 3,0 0,3 -3,0 z M 120,108 l 3,0 0,3 -3,0 z M 126,108 l 3,0 0,3 -3,0 z M 135,108 l 3,0 0,3 -3,0 z M 141,108 l 3,0 0,3 -3,0 z M 144,108 l 3,0 0,3 -3,0 z M 150,108 l 3,0 0,3 -3,0 z M 153,108 l 3,0 0,3 -3,0 z M 162,108 l 3,0 0,3 -3,0 z M 171,108 l 3,0 0,3 -3,0 z M 174,108 l 3,0 0,3 -3,0 z M 180,108 l 3,0 0,3 -3,0 z M 183,108 l 3,0 0,3 -3,0 z M 186,108 l 3,0 0,3 -3,0 z M 189,108 l 3,0 0,3 -3,0 z M 192,108 l 3,0 0,3 -3,0 z M 0,111 l 3,0 0,3 -3,0 z M 6,111 l 3,0 0,3 -3,0 z M 15,111 l 3,0 0,3 -3,0 z M 21,111 l 3,0 0,3 -3,0 z M 24,111 l 3,0 0,3 -3,0 z M 27,111 l 3,0 0,3 -3,0 z M 33,111 l 3,0 0,3 -3,0 z M 39,111 l 3,0 0,3 -3,0 z M 45,111 l 3,0 0,3 -3,0 z M 48,111 l 3,0 0,3 -3,0 z M 54,111 l 3,0 0,3 -3,0 z M 57,111 l 3,0 0,3 -3,0 z M 60,111 l 3,0 0,3 -3,0 z M 63,111 l 3,0 0,3 -3,0 z M 66,111 l 3,0 0,3 -3,0 z M 69,111 l 3,0 0,3 -3,0 z M 72,111 l 3,0 0,3 -3,0 z M 75,111 l 3,0 0,3 -3,0 z M 78,111 l 3,0 0,3 -3,0 z M 81,111 l 3,0 0,3 -3,0 z M 87,111 l 3,0 0,3 -3,0 z M 90,111 l 3,0 0,3 -3,0 z M 93,111 l 3,0 0,3 -3,0 z M 99,111 l 3,0 0,3 -3,0 z M 105,111 l 3,0 0,3 -3,0 z M 108,111 l 3,0 0,3 -3,0 z M 114,111 l 3,0 0,3 -3,0 z M 117,111 l 3,0 0,3 -3,0 z M 120,111 l 3,0 0,3 -3,0 z M 132,111 l 3,0 0,3 -3,0 z M 135,111 l 3,0 0,3 -3,0 z M 147,111 l 3,0 0,3 -3,0 z M 156,111 l 3,0 0,3 -3,0 z M 159,111 l 3,0 0,3 -3,0 z M 171,111 l 3,0 0,3 -3,0 z M 177,111 l 3,0 0,3 -3,0 z M 180,111 l 3,0 0,3 -3,0 z M 3,114 l 3,0 0,3 -3,0 z M 18,114 l 3,0 0,3 -3,0 z M 21,114 l 3,0 0,3 -3,0 z M 27,114 l 3,0 0,3 -3,0 z M 33,114 l 3,0 0,3 -3,0 z M 36,114 l 3,0 0,3 -3,0 z M 42,114 l 3,0 0,3 -3,0 z M 45,114 l 3,0 0,3 -3,0 z M 48,114 l 3,0 0,3 -3,0 z M 54,114 l 3,0 0,3 -3,0 z M 57,114 l 3,0 0,3 -3,0 z M 63,114 l 3,0 0,3 -3,0 z M 75,114 l 3,0 0,3 -3,0 z M 87,114 l 3,0 0,3 -3,0 z M 90,114 l 3,0 0,3 -3,0 z M 93,114 l 3,0 0,3 -3,0 z M 96,114 l 3,0 0,3 -3,0 z M 99,114 l 3,0 0,3 -3,0 z M 102,114 l 3,0 0,3 -3,0 z M 111,114 l 3,0 0,3 -3,0 z M 129,114 l 3,0 0,3 -3,0 z M 141,114 l 3,0 0,3 -3,0 z M 147,114 l 3,0 0,3 -3,0 z M 150,114 l 3,0 0,3 -3,0 z M 153,114 l 3,0 0,3 -3,0 z M 156,114 l 3,0 0,3 -3,0 z M 162,114 l 3,0 0,3 -3,0 z M 165,114 l 3,0 0,3 -3,0 z M 174,114 l 3,0 0,3 -3,0 z M 177,114 l 3,0 0,3 -3,0 z M 180,114 l 3,0 0,3 -3,0 z M 183,114 l 3,0 0,3 -3,0 z M 189,114 l 3,0 0,3 -3,0 z M 192,114 l 3,0 0,3 -3,0 z M 0,117 l 3,0 0,3 -3,0 z M 3,117 l 3,0 0,3 -3,0 z M 6,117 l 3,0 0,3 -3,0 z M 21,117 l 3,0 0,3 -3,0 z M 24,117 l 3,0 0,3 -3,0 z M 27,117 l 3,0 0,3 -3,0 z M 39,117 l 3,0 0,3 -3,0 z M 42,117 l 3,0 0,3 -3,0 z M 51,117 l 3,0 0,3 -3,0 z M 57,117 l 3,0 0,3 -3,0 z M 60,117 l 3,0 0,3 -3,0 z M 66,117 l 3,0 0,3 -3,0 z M 72,117 l 3,0 0,3 -3,0 z M 81,117 l 3,0 0,3 -3,0 z M 90,117 l 3,0 0,3 -3,0 z M 93,117 l 3,0 0,3 -3,0 z M 96,117 l 3,0 0,3 -3,0 z M 102,117 l 3,0 0,3 -3,0 z M 105,117 l 3,0 0,3 -3,0 z M 114,117 l 3,0 0,3 -3,0 z M 117,117 l 3,0 0,3 -3,0 z M 126,117 l 3,0 0,3 -3,0 z M 129,117 l 3,0 0,3 -3,0 z M 135,117 l 3,0 0,3 -3,0 z M 144,117 l 3,0 0,3 -3,0 z M 147,117 l 3,0 0,3 -3,0 z M 150,117 l 3,0 0,3 -3,0 z M 162,117 l 3,0 0,3 -3,0 z M 168,117 l 3,0 0,3 -3,0 z M 177,117 l 3,0 0,3 -3,0 z M 180,117 l 3,0 0,3 -3,0 z M 183,117 l 3,0 0,3 -3,0 z M 189,117 l 3,0 0,3 -3,0 z M 192,117 l 3,0 0,3 -3,0 z M 0,120 l 3,0 0,3 -3,0 z M 3,120 l 3,0 0,3 -3,0 z M 6,120 l 3,0 0,3 -3,0 z M 18,120 l 3,0 0,3 -3,0 z M 30,120 l 3,0 0,3 -3,0 z M 36,120 l 3,0 0,3 -3,0 z M 39,120 l 3,0 0,3 -3,0 z M 42,120 l 3,0 0,3 -3,0 z M 45,120 l 3,0 0,3 -3,0 z M 54,120 l 3,0 0,3 -3,0 z M 57,120 l 3,0 0,3 -3,0 z M 60,120 l 3,0 0,3 -3,0 z M 66,120 l 3,0 0,3 -3,0 z M 72,120 l 3,0 0,3 -3,0 z M 78,120 l 3,0 0,3 -3,0 z M 84,120 l 3,0 0,3 -3,0 z M 96,120 l 3,0 0,3 -3,0 z M 99,120 l 3,0 0,3 -3,0 z M 105,120 l 3,0 0,3 -3,0 z M 108,120 l 3,0 0,3 -3,0 z M 111,120 l 3,0 0,3 -3,0 z M 114,120 l 3,0 0,3 -3,0 z M 120,120 l 3,0 0,3 -3,0 z M 123,120 l 3,0 0,3 -3,0 z M 126,120 l 3,0 0,3 -3,0 z M 141,120 l 3,0 0,3 -3,0 z M 147,120 l 3,0 0,3 -3,0 z M 165,120 l 3,0 0,3 -3,0 z M 174,120 l 3,0 0,3 -3,0 z M 177,120 l 3,0 0,3 -3,0 z M 180,120 l 3,0 0,3 -3,0 z M 189,120 l 3,0 0,3 -3,0 z M 3,123 l 3,0 0,3 -3,0 z M 15,123 l 3,0 0,3 -3,0 z M 21,123 l 3,0 0,3 -3,0 z M 24,123 l 3,0 0,3 -3,0 z M 33,123 l 3,0 0,3 -3,0 z M 36,123 l 3,0 0,3 -3,0 z M 39,123 l 3,0 0,3 -3,0 z M 42,123 l 3,0 0,3 -3,0 z M 45,123 l 3,0 0,3 -3,0 z M 48,123 l 3,0 0,3 -3,0 z M 57,123 l 3,0 0,3 -3,0 z M 60,123 l 3,0 0,3 -3,0 z M 72,123 l 3,0 0,3 -3,0 z M 87,123 l 3,0 0,3 -3,0 z M 93,123 l 3,0 0,3 -3,0 z M 102,123 l 3,0 0,3 -3,0 z M 105,123 l 3,0 0,3 -3,0 z M 108,123 l 3,0 0,3 -3,0 z M 111,123 l 3,0 0,3 -3,0 z M 114,123 l 3,0 0,3 -3,0 z M 117,123 l 3,0 0,3 -3,0 z M 126,123 l 3,0 0,3 -3,0 z M 129,123 l 3,0 0,3 -3,0 z M 162,123 l 3,0 0,3 -3,0 z M 165,123 l 3,0 0,3 -3,0 z M 168,123 l 3,0 0,3 -3,0 z M 171,123 l 3,0 0,3 -3,0 z M 174,123 l 3,0 0,3 -3,0 z M 183,123 l 3,0 0,3 -3,0 z M 186,123 l 3,0 0,3 -3,0 z M 192,123 l 3,0 0,3 -3,0 z M 0,126 l 3,0 0,3 -3,0 z M 3,126 l 3,0 0,3 -3,0 z M 9,126 l 3,0 0,3 -3,0 z M 18,126 l 3,0 0,3 -3,0 z M 27,126 l 3,0 0,3 -3,0 z M 30,126 l 3,0 0,3 -3,0 z M 33,126 l 3,0 0,3 -3,0 z M 42,126 l 3,0 0,3 -3,0 z M 45,126 l 3,0 0,3 -3,0 z M 48,126 l 3,0 0,3 -3,0 z M 54,126 l 3,0 0,3 -3,0 z M 57,126 l 3,0 0,3 -3,0 z M 63,126 l 3,0 0,3 -3,0 z M 66,126 l 3,0 0,3 -3,0 z M 69,126 l 3,0 0,3 -3,0 z M 72,126 l 3,0 0,3 -3,0 z M 75,126 l 3,0 0,3 -3,0 z M 81,126 l 3,0 0,3 -3,0 z M 87,126 l 3,0 0,3 -3,0 z M 93,126 l 3,0 0,3 -3,0 z M 102,126 l 3,0 0,3 -3,0 z M 105,126 l 3,0 0,3 -3,0 z M 123,126 l 3,0 0,3 -3,0 z M 126,126 l 3,0 0,3 -3,0 z M 141,126 l 3,0 0,3 -3,0 z M 147,126 l 3,0 0,3 -3,0 z M 153,126 l 3,0 0,3 -3,0 z M 156,126 l 3,0 0,3 -3,0 z M 162,126 l 3,0 0,3 -3,0 z M 165,126 l 3,0 0,3 -3,0 z M 168,126 l 3,0 0,3 -3,0 z M 171,126 l 3,0 0,3 -3,0 z M 174,126 l 3,0 0,3 -3,0 z M 189,126 l 3,0 0,3 -3,0 z M 192,126 l 3,0 0,3 -3,0 z M 0,129 l 3,0 0,3 -3,0 z M 6,129 l 3,0 0,3 -3,0 z M 15,129 l 3,0 0,3 -3,0 z M 27,129 l 3,0 0,3 -3,0 z M 36,129 l 3,0 0,3 -3,0 z M 45,129 l 3,0 0,3 -3,0 z M 48,129 l 3,0 0,3 -3,0 z M 54,129 l 3,0 0,3 -3,0 z M 60,129 l 3,0 0,3 -3,0 z M 63,129 l 3,0 0,3 -3,0 z M 69,129 l 3,0 0,3 -3,0 z M 75,129 l 3,0 0,3 -3,0 z M 78,129 l 3,0 0,3 -3,0 z M 84,129 l 3,0 0,3 -3,0 z M 90,129 l 3,0 0,3 -3,0 z M 93,129 l 3,0 0,3 -3,0 z M 105,129 l 3,0 0,3 -3,0 z M 114,129 l 3,0 0,3 -3,0 z M 117,129 l 3,0 0,3 -3,0 z M 120,129 l 3,0 0,3 -3,0 z M 123,129 l 3,0 0,3 -3,0 z M 138,129 l 3,0 0,3 -3,0 z M 141,129 l 3,0 0,3 -3,0 z M 144,129 l 3,0 0,3 -3,0 z M 147,129 l 3,0 0,3 -3,0 z M 150,129 l 3,0 0,3 -3,0 z M 171,129 l 3,0 0,3 -3,0 z M 192,129 l 3,0 0,3 -3,0 z M 3,132 l 3,0 0,3 -3,0 z M 12,132 l 3,0 0,3 -3,0 z M 18,132 l 3,0 0,3 -3,0 z M 30,132 l 3,0 0,3 -3,0 z M 36,132 l 3,0 0,3 -3,0 z M 48,132 l 3,0 0,3 -3,0 z M 54,132 l 3,0 0,3 -3,0 z M 57,132 l 3,0 0,3 -3,0 z M 66,132 l 3,0 0,3 -3,0 z M 75,132 l 3,0 0,3 -3,0 z M 78,132 l 3,0 0,3 -3,0 z M 81,132 l 3,0 0,3 -3,0 z M 87,132 l 3,0 0,3 -3,0 z M 90,132 l 3,0 0,3 -3,0 z M 93,132 l 3,0 0,3 -3,0 z M 102,132 l 3,0 0,3 -3,0 z M 108,132 l 3,0 0,3 -3,0 z M 111,132 l 3,0 0,3 -3,0 z M 114,132 l 3,0 0,3 -3,0 z M 117,132 l 3,0 0,3 -3,0 z M 123,132 l 3,0 0,3 -3,0 z M 126,132 l 3,0 0,3 -3,0 z M 141,132 l 3,0 0,3 -3,0 z M 144,132 l 3,0 0,3 -3,0 z M 156,132 l 3,0 0,3 -3,0 z M 168,132 l 3,0 0,3 -3,0 z M 171,132 l 3,0 0,3 -3,0 z M 180,132 l 3,0 0,3 -3,0 z M 183,132 l 3,0 0,3 -3,0 z M 186,132 l 3,0 0,3 -3,0 z M 189,132 l 3,0 0,3 -3,0 z M 3,135 l 3,0 0,3 -3,0 z M 6,135 l 3,0 0,3 -3,0 z M 12,135 l 3,0 0,3 -3,0 z M 27,135 l 3,0 0,3 -3,0 z M 36,135 l 3,0 0,3 -3,0 z M 42,135 l 3,0 0,3 -3,0 z M 48,135 l 3,0 0,3 -3,0 z M 66,135 l 3,0 0,3 -3,0 z M 69,135 l 3,0 0,3 -3,0 z M 72,135 l 3,0 0,3 -3,0 z M 75,135 l 3,0 0,3 -3,0 z M 81,135 l 3,0 0,3 -3,0 z M 102,135 l 3,0 0,3 -3,0 z M 105,135 l 3,0 0,3 -3,0 z M 108,135 l 3,0 0,3 -3,0 z M 117,135 l 3,0 0,3 -3,0 z M 141,135 l 3,0 0,3 -3,0 z M 144,135 l 3,0 0,3 -3,0 z M 150,135 l 3,0 0,3 -3,0 z M 159,135 l 3,0 0,3 -3,0 z M 162,135 l 3,0 0,3 -3,0 z M 165,135 l 3,0 0,3 -3,0 z M 171,135 l 3,0 0,3 -3,0 z M 174,135 l 3,0 0,3 -3,0 z M 180,135 l 3,0 0,3 -3,0 z M 189,135 l 3,0 0,3 -3,0 z M 9,138 l 3,0 0,3 -3,0 z M 18,138 l 3,0 0,3 -3,0 z M 21,138 l 3,0 0,3 -3,0 z M 27,138 l 3,0 0,3 -3,0 z M 33,138 l 3,0 0,3 -3,0 z M 36,138 l 3,0 0,3 -3,0 z M 42,138 l 3,0 0,3 -3,0 z M 45,138 l 3,0 0,3 -3,0 z M 48,138 l 3,0 0,3 -3,0 z M 51,138 l 3,0 0,3 -3,0 z M 54,138 l 3,0 0,3 -3,0 z M 60,138 l 3,0 0,3 -3,0 z M 63,138 l 3,0 0,3 -3,0 z M 66,138 l 3,0 0,3 -3,0 z M 69,138 l 3,0 0,3 -3,0 z M 72,138 l 3,0 0,3 -3,0 z M 81,138 l 3,0 0,3 -3,0 z M 87,138 l 3,0 0,3 -3,0 z M 93,138 l 3,0 0,3 -3,0 z M 96,138 l 3,0 0,3 -3,0 z M 105,138 l 3,0 0,3 -3,0 z M 108,138 l 3,0 0,3 -3,0 z M 111,138 l 3,0 0,3 -3,0 z M 123,138 l 3,0 0,3 -3,0 z M 135,138 l 3,0 0,3 -3,0 z M 141,138 l 3,0 0,3 -3,0 z M 147,138 l 3,0 0,3 -3,0 z M 153,138 l 3,0 0,3 -3,0 z M 165,138 l 3,0 0,3 -3,0 z M 171,138 l 3,0 0,3 -3,0 z M 174,138 l 3,0 0,3 -3,0 z M 180,138 l 3,0 0,3 -3,0 z M 189,138 l 3,0 0,3 -3,0 z M 12,141 l 3,0 0,3 -3,0 z M 21,141 l 3,0 0,3 -3,0 z M 24,141 l 3,0 0,3 -3,0 z M 27,141 l 3,0 0,3 -3,0 z M 30,141 l 3,0 0,3 -3,0 z M 33,141 l 3,0 0,3 -3,0 z M 39,141 l 3,0 0,3 -3,0 z M 42,141 l 3,0 0,3 -3,0 z M 45,141 l 3,0 0,3 -3,0 z M 51,141 l 3,0 0,3 -3,0 z M 66,141 l 3,0 0,3 -3,0 z M 69,141 l 3,0 0,3 -3,0 z M 75,141 l 3,0 0,3 -3,0 z M 78,141 l 3,0 0,3 -3,0 z M 84,141 l 3,0 0,3 -3,0 z M 87,141 l 3,0 0,3 -3,0 z M 99,141 l 3,0 0,3 -3,0 z M 102,141 l 3,0 0,3 -3,0 z M 108,141 l 3,0 0,3 -3,0 z M 111,141 l 3,0 0,3 -3,0 z M 114,141 l 3,0 0,3 -3,0 z M 117,141 l 3,0 0,3 -3,0 z M 126,141 l 3,0 0,3 -3,0 z M 129,141 l 3,0 0,3 -3,0 z M 132,141 l 3,0 0,3 -3,0 z M 138,141 l 3,0 0,3 -3,0 z M 141,141 l 3,0 0,3 -3,0 z M 144,141 l 3,0 0,3 -3,0 z M 147,141 l 3,0 0,3 -3,0 z M 150,141 l 3,0 0,3 -3,0 z M 153,141 l 3,0 0,3 -3,0 z M 180,141 l 3,0 0,3 -3,0 z M 186,141 l 3,0 0,3 -3,0 z M 189,141 l 3,0 0,3 -3,0 z M 12,144 l 3,0 0,3 -3,0 z M 15,144 l 3,0 0,3 -3,0 z M 18,144 l 3,0 0,3 -3,0 z M 21,144 l 3,0 0,3 -3,0 z M 24,144 l 3,0 0,3 -3,0 z M 27,144 l 3,0 0,3 -3,0 z M 33,144 l 3,0 0,3 -3,0 z M 36,144 l 3,0 0,3 -3,0 z M 54,144 l 3,0 0,3 -3,0 z M 57,144 l 3,0 0,3 -3,0 z M 66,144 l 3,0 0,3 -3,0 z M 69,144 l 3,0 0,3 -3,0 z M 72,144 l 3,0 0,3 -3,0 z M 75,144 l 3,0 0,3 -3,0 z M 78,144 l 3,0 0,3 -3,0 z M 84,144 l 3,0 0,3 -3,0 z M 93,144 l 3,0 0,3 -3,0 z M 96,144 l 3,0 0,3 -3,0 z M 99,144 l 3,0 0,3 -3,0 z M 105,144 l 3,0 0,3 -3,0 z M 108,144 l 3,0 0,3 -3,0 z M 120,144 l 3,0 0,3 -3,0 z M 129,144 l 3,0 0,3 -3,0 z M 132,144 l 3,0 0,3 -3,0 z M 135,144 l 3,0 0,3 -3,0 z M 138,144 l 3,0 0,3 -3,0 z M 144,144 l 3,0 0,3 -3,0 z M 150,144 l 3,0 0,3 -3,0 z M 156,144 l 3,0 0,3 -3,0 z M 159,144 l 3,0 0,3 -3,0 z M 171,144 l 3,0 0,3 -3,0 z M 174,144 l 3,0 0,3 -3,0 z M 177,144 l 3,0 0,3 -3,0 z M 186,144 l 3,0 0,3 -3,0 z M 189,144 l 3,0 0,3 -3,0 z M 0,147 l 3,0 0,3 -3,0 z M 6,147 l 3,0 0,3 -3,0 z M 12,147 l 3,0 0,3 -3,0 z M 21,147 l 3,0 0,3 -3,0 z M 24,147 l 3,0 0,3 -3,0 z M 27,147 l 3,0 0,3 -3,0 z M 30,147 l 3,0 0,3 -3,0 z M 42,147 l 3,0 0,3 -3,0 z M 45,147 l 3,0 0,3 -3,0 z M 54,147 l 3,0 0,3 -3,0 z M 57,147 l 3,0 0,3 -3,0 z M 81,147 l 3,0 0,3 -3,0 z M 93,147 l 3,0 0,3 -3,0 z M 96,147 l 3,0 0,3 -3,0 z M 99,147 l 3,0 0,3 -3,0 z M 102,147 l 3,0 0,3 -3,0 z M 108,147 l 3,0 0,3 -3,0 z M 111,147 l 3,0 0,3 -3,0 z M 114,147 l 3,0 0,3 -3,0 z M 117,147 l 3,0 0,3 -3,0 z M 120,147 l 3,0 0,3 -3,0 z M 126,147 l 3,0 0,3 -3,0 z M 129,147 l 3,0 0,3 -3,0 z M 138,147 l 3,0 0,3 -3,0 z M 144,147 l 3,0 0,3 -3,0 z M 147,147 l 3,0 0,3 -3,0 z M 150,147 l 3,0 0,3 -3,0 z M 153,147 l 3,0 0,3 -3,0 z M 159,147 l 3,0 0,3 -3,0 z M 162,147 l 3,0 0,3 -3,0 z M 165,147 l 3,0 0,3 -3,0 z M 171,147 l 3,0 0,3 -3,0 z M 174,147 l 3,0 0,3 -3,0 z M 177,147 l 3,0 0,3 -3,0 z M 180,147 l 3,0 0,3 -3,0 z M 189,147 l 3,0 0,3 -3,0 z M 192,147 l 3,0 0,3 -3,0 z M 0,150 l 3,0 0,3 -3,0 z M 9,150 l 3,0 0,3 -3,0 z M 12,150 l 3,0 0,3 -3,0 z M 15,150 l 3,0 0,3 -3,0 z M 18,150 l 3,0 0,3 -3,0 z M 27,150 l 3,0 0,3 -3,0 z M 30,150 l 3,0 0,3 -3,0 z M 36,150 l 3,0 0,3 -3,0 z M 51,150 l 3,0 0,3 -3,0 z M 66,150 l 3,0 0,3 -3,0 z M 75,150 l 3,0 0,3 -3,0 z M 81,150 l 3,0 0,3 -3,0 z M 84,150 l 3,0 0,3 -3,0 z M 105,150 l 3,0 0,3 -3,0 z M 114,150 l 3,0 0,3 -3,0 z M 120,150 l 3,0 0,3 -3,0 z M 126,150 l 3,0 0,3 -3,0 z M 129,150 l 3,0 0,3 -3,0 z M 135,150 l 3,0 0,3 -3,0 z M 144,150 l 3,0 0,3 -3,0 z M 153,150 l 3,0 0,3 -3,0 z M 159,150 l 3,0 0,3 -3,0 z M 162,150 l 3,0 0,3 -3,0 z M 165,150 l 3,0 0,3 -3,0 z M 171,150 l 3,0 0,3 -3,0 z M 177,150 l 3,0 0,3 -3,0 z M 180,150 l 3,0 0,3 -3,0 z M 192,150 l 3,0 0,3 -3,0 z M 0,153 l 3,0 0,3 -3,0 z M 6,153 l 3,0 0,3 -3,0 z M 9,153 l 3,0 0,3 -3,0 z M 12,153 l 3,0 0,3 -3,0 z M 21,153 l 3,0 0,3 -3,0 z M 24,153 l 3,0 0,3 -3,0 z M 27,153 l 3,0 0,3 -3,0 z M 30,153 l 3,0 0,3 -3,0 z M 33,153 l 3,0 0,3 -3,0 z M 48,153 l 3,0 0,3 -3,0 z M 54,153 l 3,0 0,3 -3,0 z M 63,153 l 3,0 0,3 -3,0 z M 66,153 l 3,0 0,3 -3,0 z M 72,153 l 3,0 0,3 -3,0 z M 75,153 l 3,0 0,3 -3,0 z M 78,153 l 3,0 0,3 -3,0 z M 81,153 l 3,0 0,3 -3,0 z M 93,153 l 3,0 0,3 -3,0 z M 99,153 l 3,0 0,3 -3,0 z M 102,153 l 3,0 0,3 -3,0 z M 105,153 l 3,0 0,3 -3,0 z M 108,153 l 3,0 0,3 -3,0 z M 111,153 l 3,0 0,3 -3,0 z M 114,153 l 3,0 0,3 -3,0 z M 117,153 l 3,0 0,3 -3,0 z M 129,153 l 3,0 0,3 -3,0 z M 135,153 l 3,0 0,3 -3,0 z M 150,153 l 3,0 0,3 -3,0 z M 159,153 l 3,0 0,3 -3,0 z M 168,153 l 3,0 0,3 -3,0 z M 177,153 l 3,0 0,3 -3,0 z M 180,153 l 3,0 0,3 -3,0 z M 183,153 l 3,0 0,3 -3,0 z M 189,153 l 3,0 0,3 -3,0 z M 192,153 l 3,0 0,3 -3,0 z M 0,156 l 3,0 0,3 -3,0 z M 18,156 l 3,0 0,3 -3,0 z M 24,156 l 3,0 0,3 -3,0 z M 33,156 l 3,0 0,3 -3,0 z M 39,156 l 3,0 0,3 -3,0 z M 42,156 l 3,0 0,3 -3,0 z M 45,156 l 3,0 0,3 -3,0 z M 54,156 l 3,0 0,3 -3,0 z M 57,156 l 3,0 0,3 -3,0 z M 60,156 l 3,0 0,3 -3,0 z M 66,156 l 3,0 0,3 -3,0 z M 72,156 l 3,0 0,3 -3,0 z M 75,156 l 3,0 0,3 -3,0 z M 78,156 l 3,0 0,3 -3,0 z M 84,156 l 3,0 0,3 -3,0 z M 96,156 l 3,0 0,3 -3,0 z M 102,156 l 3,0 0,3 -3,0 z M 108,156 l 3,0 0,3 -3,0 z M 114,156 l 3,0 0,3 -3,0 z M 117,156 l 3,0 0,3 -3,0 z M 141,156 l 3,0 0,3 -3,0 z M 144,156 l 3,0 0,3 -3,0 z M 150,156 l 3,0 0,3 -3,0 z M 162,156 l 3,0 0,3 -3,0 z M 165,156 l 3,0 0,3 -3,0 z M 171,156 l 3,0 0,3 -3,0 z M 177,156 l 3,0 0,3 -3,0 z M 180,156 l 3,0 0,3 -3,0 z M 183,156 l 3,0 0,3 -3,0 z M 3,159 l 3,0 0,3 -3,0 z M 21,159 l 3,0 0,3 -3,0 z M 33,159 l 3,0 0,3 -3,0 z M 42,159 l 3,0 0,3 -3,0 z M 48,159 l 3,0 0,3 -3,0 z M 54,159 l 3,0 0,3 -3,0 z M 57,159 l 3,0 0,3 -3,0 z M 66,159 l 3,0 0,3 -3,0 z M 75,159 l 3,0 0,3 -3,0 z M 81,159 l 3,0 0,3 -3,0 z M 93,159 l 3,0 0,3 -3,0 z M 96,159 l 3,0 0,3 -3,0 z M 99,159 l 3,0 0,3 -3,0 z M 105,159 l 3,0 0,3 -3,0 z M 111,159 l 3,0 0,3 -3,0 z M 114,159 l 3,0 0,3 -3,0 z M 117,159 l 3,0 0,3 -3,0 z M 129,159 l 3,0 0,3 -3,0 z M 147,159 l 3,0 0,3 -3,0 z M 150,159 l 3,0 0,3 -3,0 z M 153,159 l 3,0 0,3 -3,0 z M 156,159 l 3,0 0,3 -3,0 z M 159,159 l 3,0 0,3 -3,0 z M 162,159 l 3,0 0,3 -3,0 z M 168,159 l 3,0 0,3 -3,0 z M 180,159 l 3,0 0,3 -3,0 z M 192,159 l 3,0 0,3 -3,0 z M 6,162 l 3,0 0,3 -3,0 z M 9,162 l 3,0 0,3 -3,0 z M 15,162 l 3,0 0,3 -3,0 z M 18,162 l 3,0 0,3 -3,0 z M 21,162 l 3,0 0,3 -3,0 z M 24,162 l 3,0 0,3 -3,0 z M 30,162 l 3,0 0,3 -3,0 z M 36,162 l 3,0 0,3 -3,0 z M 39,162 l 3,0 0,3 -3,0 z M 42,162 l 3,0 0,3 -3,0 z M 48,162 l 3,0 0,3 -3,0 z M 63,162 l 3,0 0,3 -3,0 z M 72,162 l 3,0 0,3 -3,0 z M 75,162 l 3,0 0,3 -3,0 z M 87,162 l 3,0 0,3 -3,0 z M 90,162 l 3,0 0,3 -3,0 z M 93,162 l 3,0 0,3 -3,0 z M 96,162 l 3,0 0,3 -3,0 z M 102,162 l 3,0 0,3 -3,0 z M 105,162 l 3,0 0,3 -3,0 z M 117,162 l 3,0 0,3 -3,0 z M 123,162 l 3,0 0,3 -3,0 z M 126,162 l 3,0 0,3 -3,0 z M 132,162 l 3,0 0,3 -3,0 z M 138,162 l 3,0 0,3 -3,0 z M 147,162 l 3,0 0,3 -3,0 z M 150,162 l 3,0 0,3 -3,0 z M 162,162 l 3,0 0,3 -3,0 z M 171,162 l 3,0 0,3 -3,0 z M 177,162 l 3,0 0,3 -3,0 z M 180,162 l 3,0 0,3 -3,0 z M 189,162 l 3,0 0,3 -3,0 z M 0,165 l 3,0 0,3 -3,0 z M 9,165 l 3,0 0,3 -3,0 z M 24,165 l 3,0 0,3 -3,0 z M 33,165 l 3,0 0,3 -3,0 z M 36,165 l 3,0 0,3 -3,0 z M 39,165 l 3,0 0,3 -3,0 z M 45,165 l 3,0 0,3 -3,0 z M 57,165 l 3,0 0,3 -3,0 z M 63,165 l 3,0 0,3 -3,0 z M 72,165 l 3,0 0,3 -3,0 z M 78,165 l 3,0 0,3 -3,0 z M 81,165 l 3,0 0,3 -3,0 z M 84,165 l 3,0 0,3 -3,0 z M 90,165 l 3,0 0,3 -3,0 z M 93,165 l 3,0 0,3 -3,0 z M 96,165 l 3,0 0,3 -3,0 z M 99,165 l 3,0 0,3 -3,0 z M 105,165 l 3,0 0,3 -3,0 z M 123,165 l 3,0 0,3 -3,0 z M 129,165 l 3,0 0,3 -3,0 z M 141,165 l 3,0 0,3 -3,0 z M 153,165 l 3,0 0,3 -3,0 z M 156,165 l 3,0 0,3 -3,0 z M 159,165 l 3,0 0,3 -3,0 z M 165,165 l 3,0 0,3 -3,0 z M 168,165 l 3,0 0,3 -3,0 z M 180,165 l 3,0 0,3 -3,0 z M 192,165 l 3,0 0,3 -3,0 z M 3,168 l 3,0 0,3 -3,0 z M 6,168 l 3,0 0,3 -3,0 z M 12,168 l 3,0 0,3 -3,0 z M 18,168 l 3,0 0,3 -3,0 z M 21,168 l 3,0 0,3 -3,0 z M 30,168 l 3,0 0,3 -3,0 z M 33,168 l 3,0 0,3 -3,0 z M 51,168 l 3,0 0,3 -3,0 z M 54,168 l 3,0 0,3 -3,0 z M 60,168 l 3,0 0,3 -3,0 z M 63,168 l 3,0 0,3 -3,0 z M 66,168 l 3,0 0,3 -3,0 z M 69,168 l 3,0 0,3 -3,0 z M 72,168 l 3,0 0,3 -3,0 z M 75,168 l 3,0 0,3 -3,0 z M 78,168 l 3,0 0,3 -3,0 z M 87,168 l 3,0 0,3 -3,0 z M 90,168 l 3,0 0,3 -3,0 z M 93,168 l 3,0 0,3 -3,0 z M 96,168 l 3,0 0,3 -3,0 z M 99,168 l 3,0 0,3 -3,0 z M 102,168 l 3,0 0,3 -3,0 z M 108,168 l 3,0 0,3 -3,0 z M 111,168 l 3,0 0,3 -3,0 z M 117,168 l 3,0 0,3 -3,0 z M 126,168 l 3,0 0,3 -3,0 z M 129,168 l 3,0 0,3 -3,0 z M 132,168 l 3,0 0,3 -3,0 z M 135,168 l 3,0 0,3 -3,0 z M 138,168 l 3,0 0,3 -3,0 z M 141,168 l 3,0 0,3 -3,0 z M 144,168 l 3,0 0,3 -3,0 z M 147,168 l 3,0 0,3 -3,0 z M 153,168 l 3,0 0,3 -3,0 z M 156,168 l 3,0 0,3 -3,0 z M 165,168 l 3,0 0,3 -3,0 z M 168,168 l 3,0 0,3 -3,0 z M 171,168 l 3,0 0,3 -3,0 z M 174,168 l 3,0 0,3 -3,0 z M 177,168 l 3,0 0,3 -3,0 z M 180,168 l 3,0 0,3 -3,0 z M 24,171 l 3,0 0,3 -3,0 z M 27,171 l 3,0 0,3 -3,0 z M 30,171 l 3,0 0,3 -3,0 z M 36,171 l 3,0 0,3 -3,0 z M 42,171 l 3,0 0,3 -3,0 z M 48,171 l 3,0 0,3 -3,0 z M 51,171 l 3,0 0,3 -3,0 z M 54,171 l 3,0 0,3 -3,0 z M 57,171 l 3,0 0,3 -3,0 z M 60,171 l 3,0 0,3 -3,0 z M 72,171 l 3,0 0,3 -3,0 z M 75,171 l 3,0 0,3 -3,0 z M 78,171 l 3,0 0,3 -3,0 z M 81,171 l 3,0 0,3 -3,0 z M 84,171 l 3,0 0,3 -3,0 z M 87,171 l 3,0 0,3 -3,0 z M 90,171 l 3,0 0,3 -3,0 z M 102,171 l 3,0 0,3 -3,0 z M 117,171 l 3,0 0,3 -3,0 z M 123,171 l 3,0 0,3 -3,0 z M 126,171 l 3,0 0,3 -3,0 z M 141,171 l 3,0 0,3 -3,0 z M 156,171 l 3,0 0,3 -3,0 z M 168,171 l 3,0 0,3 -3,0 z M 180,171 l 3,0 0,3 -3,0 z M 189,171 l 3,0 0,3 -3,0 z M 192,171 l 3,0 0,3 -3,0 z M 0,174 l 3,0 0,3 -3,0 z M 3,174 l 3,0 0,3 -3,0 z M 6,174 l 3,0 0,3 -3,0 z M 9,174 l 3,0 0,3 -3,0 z M 12,174 l 3,0 0,3 -3,0 z M 15,174 l 3,0 0,3 -3,0 z M 18,174 l 3,0 0,3 -3,0 z M 24,174 l 3,0 0,3 -3,0 z M 36,174 l 3,0 0,3 -3,0 z M 39,174 l 3,0 0,3 -3,0 z M 51,174 l 3,0 0,3 -3,0 z M 54,174 l 3,0 0,3 -3,0 z M 57,174 l 3,0 0,3 -3,0 z M 60,174 l 3,0 0,3 -3,0 z M 66,174 l 3,0 0,3 -3,0 z M 69,174 l 3,0 0,3 -3,0 z M 72,174 l 3,0 0,3 -3,0 z M 90,174 l 3,0 0,3 -3,0 z M 96,174 l 3,0 0,3 -3,0 z M 102,174 l 3,0 0,3 -3,0 z M 111,174 l 3,0 0,3 -3,0 z M 117,174 l 3,0 0,3 -3,0 z M 126,174 l 3,0 0,3 -3,0 z M 129,174 l 3,0 0,3 -3,0 z M 132,174 l 3,0 0,3 -3,0 z M 144,174 l 3,0 0,3 -3,0 z M 147,174 l 3,0 0,3 -3,0 z M 153,174 l 3,0 0,3 -3,0 z M 159,174 l 3,0 0,3 -3,0 z M 168,174 l 3,0 0,3 -3,0 z M 174,174 l 3,0 0,3 -3,0 z M 180,174 l 3,0 0,3 -3,0 z M 183,174 l 3,0 0,3 -3,0 z M 189,174 l 3,0 0,3 -3,0 z M 0,177 l 3,0 0,3 -3,0 z M 18,177 l 3,0 0,3 -3,0 z M 24,177 l 3,0 0,3 -3,0 z M 39,177 l 3,0 0,3 -3,0 z M 45,177 l 3,0 0,3 -3,0 z M 48,177 l 3,0 0,3 -3,0 z M 51,177 l 3,0 0,3 -3,0 z M 69,177 l 3,0 0,3 -3,0 z M 72,177 l 3,0 0,3 -3,0 z M 75,177 l 3,0 0,3 -3,0 z M 78,177 l 3,0 0,3 -3,0 z M 81,177 l 3,0 0,3 -3,0 z M 90,177 l 3,0 0,3 -3,0 z M 102,177 l 3,0 0,3 -3,0 z M 105,177 l 3,0 0,3 -3,0 z M 114,177 l 3,0 0,3 -3,0 z M 126,177 l 3,0 0,3 -3,0 z M 141,177 l 3,0 0,3 -3,0 z M 153,177 l 3,0 0,3 -3,0 z M 159,177 l 3,0 0,3 -3,0 z M 162,177 l 3,0 0,3 -3,0 z M 165,177 l 3,0 0,3 -3,0 z M 168,177 l 3,0 0,3 -3,0 z M 180,177 l 3,0 0,3 -3,0 z M 189,177 l 3,0 0,3 -3,0 z M 192,177 l 3,0 0,3 -3,0 z M 0,180 l 3,0 0,3 -3,0 z M 6,180 l 3,0 0,3 -3,0 z M 9,180 l 3,0 0,3 -3,0 z M 12,180 l 3,0 0,3 -3,0 z M 18,180 l 3,0 0,3 -3,0 z M 24,180 l 3,0 0,3 -3,0 z M 30,180 l 3,0 0,3 -3,0 z M 33,180 l 3,0 0,3 -3,0 z M 36,180 l 3,0 0,3 -3,0 z M 39,180 l 3,0 0,3 -3,0 z M 60,180 l 3,0 0,3 -3,0 z M 72,180 l 3,0 0,3 -3,0 z M 75,180 l 3,0 0,3 -3,0 z M 84,180 l 3,0 0,3 -3,0 z M 87,180 l 3,0 0,3 -3,0 z M 90,180 l 3,0 0,3 -3,0 z M 93,180 l 3,0 0,3 -3,0 z M 96,180 l 3,0 0,3 -3,0 z M 99,180 l 3,0 0,3 -3,0 z M 102,180 l 3,0 0,3 -3,0 z M 105,180 l 3,0 0,3 -3,0 z M 108,180 l 3,0 0,3 -3,0 z M 117,180 l 3,0 0,3 -3,0 z M 123,180 l 3,0 0,3 -3,0 z M 135,180 l 3,0 0,3 -3,0 z M 144,180 l 3,0 0,3 -3,0 z M 159,180 l 3,0 0,3 -3,0 z M 162,180 l 3,0 0,3 -3,0 z M 168,180 l 3,0 0,3 -3,0 z M 171,180 l 3,0 0,3 -3,0 z M 174,180 l 3,0 0,3 -3,0 z M 177,180 l 3,0 0,3 -3,0 z M 180,180 l 3,0 0,3 -3,0 z M 183,180 l 3,0 0,3 -3,0 z M 192,180 l 3,0 0,3 -3,0 z M 0,183 l 3,0 0,3 -3,0 z M 6,183 l 3,0 0,3 -3,0 z M 9,183 l 3,0 0,3 -3,0 z M 12,183 l 3,0 0,3 -3,0 z M 18,183 l 3,0 0,3 -3,0 z M 24,183 l 3,0 0,3 -3,0 z M 30,183 l 3,0 0,3 -3,0 z M 33,183 l 3,0 0,3 -3,0 z M 36,183 l 3,0 0,3 -3,0 z M 39,183 l 3,0 0,3 -3,0 z M 45,183 l 3,0 0,3 -3,0 z M 51,183 l 3,0 0,3 -3,0 z M 54,183 l 3,0 0,3 -3,0 z M 60,183 l 3,0 0,3 -3,0 z M 66,183 l 3,0 0,3 -3,0 z M 69,183 l 3,0 0,3 -3,0 z M 81,183 l 3,0 0,3 -3,0 z M 90,183 l 3,0 0,3 -3,0 z M 93,183 l 3,0 0,3 -3,0 z M 96,183 l 3,0 0,3 -3,0 z M 99,183 l 3,0 0,3 -3,0 z M 102,183 l 3,0 0,3 -3,0 z M 117,183 l 3,0 0,3 -3,0 z M 123,183 l 3,0 0,3 -3,0 z M 126,183 l 3,0 0,3 -3,0 z M 129,183 l 3,0 0,3 -3,0 z M 135,183 l 3,0 0,3 -3,0 z M 144,183 l 3,0 0,3 -3,0 z M 156,183 l 3,0 0,3 -3,0 z M 159,183 l 3,0 0,3 -3,0 z M 162,183 l 3,0 0,3 -3,0 z M 168,183 l 3,0 0,3 -3,0 z M 171,183 l 3,0 0,3 -3,0 z M 180,183 l 3,0 0,3 -3,0 z M 183,183 l 3,0 0,3 -3,0 z M 186,183 l 3,0 0,3 -3,0 z M 189,183 l 3,0 0,3 -3,0 z M 0,186 l 3,0 0,3 -3,0 z M 6,186 l 3,0 0,3 -3,0 z M 9,186 l 3,0 0,3 -3,0 z M 12,186 l 3,0 0,3 -3,0 z M 18,186 l 3,0 0,3 -3,0 z M 24,186 l 3,0 0,3 -3,0 z M 27,186 l 3,0 0,3 -3,0 z M 33,186 l 3,0 0,3 -3,0 z M 45,186 l 3,0 0,3 -3,0 z M 54,186 l 3,0 0,3 -3,0 z M 60,186 l 3,0 0,3 -3,0 z M 66,186 l 3,0 0,3 -3,0 z M 69,186 l 3,0 0,3 -3,0 z M 78,186 l 3,0 0,3 -3,0 z M 84,186 l 3,0 0,3 -3,0 z M 87,186 l 3,0 0,3 -3,0 z M 93,186 l 3,0 0,3 -3,0 z M 102,186 l 3,0 0,3 -3,0 z M 108,186 l 3,0 0,3 -3,0 z M 111,186 l 3,0 0,3 -3,0 z M 114,186 l 3,0 0,3 -3,0 z M 117,186 l 3,0 0,3 -3,0 z M 120,186 l 3,0 0,3 -3,0 z M 126,186 l 3,0 0,3 -3,0 z M 132,186 l 3,0 0,3 -3,0 z M 138,186 l 3,0 0,3 -3,0 z M 141,186 l 3,0 0,3 -3,0 z M 147,186 l 3,0 0,3 -3,0 z M 162,186 l 3,0 0,3 -3,0 z M 168,186 l 3,0 0,3 -3,0 z M 174,186 l 3,0 0,3 -3,0 z M 177,186 l 3,0 0,3 -3,0 z M 189,186 l 3,0 0,3 -3,0 z M 0,189 l 3,0 0,3 -3,0 z M 18,189 l 3,0 0,3 -3,0 z M 24,189 l 3,0 0,3 -3,0 z M 30,189 l 3,0 0,3 -3,0 z M 33,189 l 3,0 0,3 -3,0 z M 42,189 l 3,0 0,3 -3,0 z M 54,189 l 3,0 0,3 -3,0 z M 66,189 l 3,0 0,3 -3,0 z M 69,189 l 3,0 0,3 -3,0 z M 72,189 l 3,0 0,3 -3,0 z M 75,189 l 3,0 0,3 -3,0 z M 81,189 l 3,0 0,3 -3,0 z M 84,189 l 3,0 0,3 -3,0 z M 87,189 l 3,0 0,3 -3,0 z M 96,189 l 3,0 0,3 -3,0 z M 99,189 l 3,0 0,3 -3,0 z M 102,189 l 3,0 0,3 -3,0 z M 108,189 l 3,0 0,3 -3,0 z M 129,189 l 3,0 0,3 -3,0 z M 132,189 l 3,0 0,3 -3,0 z M 135,189 l 3,0 0,3 -3,0 z M 141,189 l 3,0 0,3 -3,0 z M 147,189 l 3,0 0,3 -3,0 z M 150,189 l 3,0 0,3 -3,0 z M 153,189 l 3,0 0,3 -3,0 z M 159,189 l 3,0 0,3 -3,0 z M 180,189 l 3,0 0,3 -3,0 z M 183,189 l 3,0 0,3 -3,0 z M 186,189 l 3,0 0,3 -3,0 z M 189,189 l 3,0 0,3 -3,0 z M 192,189 l 3,0 0,3 -3,0 z M 0,192 l 3,0 0,3 -3,0 z M 3,192 l 3,0 0,3 -3,0 z M 6,192 l 3,0 0,3 -3,0 z M 9,192 l 3,0 0,3 -3,0 z M 12,192 l 3,0 0,3 -3,0 z M 15,192 l 3,0 0,3 -3,0 z M 18,192 l 3,0 0,3 -3,0 z M 33,192 l 3,0 0,3 -3,0 z M 54,192 l 3,0 0,3 -3,0 z M 57,192 l 3,0 0,3 -3,0 z M 63,192 l 3,0 0,3 -3,0 z M 66,192 l 3,0 0,3 -3,0 z M 75,192 l 3,0 0,3 -3,0 z M 78,192 l 3,0 0,3 -3,0 z M 84,192 l 3,0 0,3 -3,0 z M 87,192 l 3,0 0,3 -3,0 z M 93,192 l 3,0 0,3 -3,0 z M 96,192 l 3,0 0,3 -3,0 z M 105,192 l 3,0 0,3 -3,0 z M 108,192 l 3,0 0,3 -3,0 z M 117,192 l 3,0 0,3 -3,0 z M 120,192 l 3,0 0,3 -3,0 z M 123,192 l 3,0 0,3 -3,0 z M 132,192 l 3,0 0,3 -3,0 z M 135,192 l 3,0 0,3 -3,0 z M 144,192 l 3,0 0,3 -3,0 z M 156,192 l 3,0 0,3 -3,0 z M 174,192 l 3,0 0,3 -3,0 z M 177,192 l 3,0 0,3 -3,0 z M 189,192 l 3,0 0,3 -3,0 z " />
	</g>
</svg>
